<?xml version="1.0" standalone="no"?>
<!DOCTYPE svg PUBLIC "-//W3C//DTD SVG 1.1//EN" "http://www.w3.org/Graphics/SVG/1.1/DTD/svg11.dtd" >
<svg xmlns="http://www.w3.org/2000/svg">
<metadata>
Created by FontForge 20120731 at Mon Jun 20 11:21:06 2016
 By admin
</metadata>
<defs>
<font id="iconfont" horiz-adv-x="1024" >
  <font-face 
    font-family="iconfont"
    font-weight="500"
    font-stretch="normal"
    units-per-em="1024"
    panose-1="2 0 6 3 0 0 0 0 0 0"
    ascent="896"
    descent="-128"
    x-height="792"
    bbox="-9 -224 1343 906"
    underline-thickness="50"
    underline-position="-100"
    unicode-range="U+0078-E6A8"
  />
<missing-glyph horiz-adv-x="374" 
d="M34 0v682h272v-682h-272zM68 34h204v614h-204v-614z" />
    <glyph glyph-name=".notdef" horiz-adv-x="374" 
d="M34 0v682h272v-682h-272zM68 34h204v614h-204v-614z" />
    <glyph glyph-name=".null" horiz-adv-x="0" 
 />
    <glyph glyph-name="nonmarkingreturn" horiz-adv-x="341" 
 />
    <glyph glyph-name="x" unicode="x" horiz-adv-x="1001" 
d="M281 543q-27 -1 -53 -1h-83q-18 0 -36.5 -6t-32.5 -18.5t-23 -32t-9 -45.5v-76h912v41q0 16 -0.5 30t-0.5 18q0 13 -5 29t-17 29.5t-31.5 22.5t-49.5 9h-133v-97h-438v97zM955 310v-52q0 -23 0.5 -52t0.5 -58t-10.5 -47.5t-26 -30t-33 -16t-31.5 -4.5q-14 -1 -29.5 -0.5
t-29.5 0.5h-32l-45 128h-439l-44 -128h-29h-34q-20 0 -45 1q-25 0 -41 9.5t-25.5 23t-13.5 29.5t-4 30v167h911zM163 247q-12 0 -21 -8.5t-9 -21.5t9 -21.5t21 -8.5q13 0 22 8.5t9 21.5t-9 21.5t-22 8.5zM316 123q-8 -26 -14 -48q-5 -19 -10.5 -37t-7.5 -25t-3 -15t1 -14.5
t9.5 -10.5t21.5 -4h37h67h81h80h64h36q23 0 34 12t2 38q-5 13 -9.5 30.5t-9.5 34.5q-5 19 -11 39h-368zM336 498v228q0 11 2.5 23t10 21.5t20.5 15.5t34 6h188q31 0 51.5 -14.5t20.5 -52.5v-227h-327z" />
    <glyph glyph-name="uniE600" unicode="&#xe600;" 
d="M819 719h-56q-13 0 -23.5 -7t-10.5 -18q0 -12 11 -21.5t23 -9.5h56q25 0 40 -15.5t15 -40.5v-643q0 -25 -15 -40.5t-40 -15.5h-602q-26 0 -48 16t-22 40v643q0 25 15.5 40.5t40.5 15.5h70q21 0 21 31q0 25 -21 25h-70q-56 0 -84 -31t-28 -82v-636q0 -53 31 -85.5
t87 -32.5h604q57 0 87 30t30 88v636q0 50 -29.5 81.5t-81.5 31.5zM273 467q0 -12 8.5 -20.5t19.5 -8.5h420q12 0 20.5 8.5t8.5 20t-8.5 20t-20.5 8.5h-420q-11 0 -19.5 -8.5t-8.5 -19.5zM720 341h-419q-11 0 -19.5 -8.5t-8.5 -20t8.5 -20t19.5 -8.5h420q12 0 20.5 8.5
t8.5 19.5q-1 13 -9.5 21t-20.5 8zM720 173h-419q-11 0 -19.5 -8.5t-8.5 -20t8.5 -20t19.5 -8.5h420q12 0 20.5 8.5t8.5 20.5q-1 12 -9.5 20t-20.5 8zM414 649h195q17 0 29.5 14.5t12.5 34t-12.5 34t-30.5 14.5h-194q-17 0 -29.5 -14.5t-12.5 -34t12.5 -34t29.5 -14.5z
M414 649z" />
    <glyph glyph-name="uniE601" unicode="&#xe601;" 
d="M981 102q0 -18 -16 -30q-11 -9 -23 -9h-43h-44q8 -20 8 -39q0 -49 -34.5 -83t-83 -34t-82.5 34t-34 83q0 19 7 39h-41h-208h-44q8 -20 8 -39q0 -49 -34.5 -83t-83 -34t-82.5 34t-34 83q0 19 7 39h-41h-8q-16 0 -27.5 11.5t-11.5 27.5v158q0 8 4 17q-4 9 -4 19v2v1
q0 18 15 31l106 181q10 25 36 25h158v118q0 16 11.5 27.5t27.5 11.5h197h158h197q16 0 27.5 -11.5t11.5 -27.5v-355q0 -9 -6 -19q6 -10 6 -20v-158zM744.5 -16q16.5 0 28 11.5t11.5 28t-11.5 28t-28 11.5t-28 -11.5t-11.5 -28t11.5 -28t28 -11.5zM232.5 -16q16.5 0 28 11.5
t11.5 28t-11.5 28t-28 11.5t-28 -11.5t-11.5 -28t11.5 -28t28 -11.5zM351 457h-134l-70 -118h86q16 0 27.5 -11.5t11.5 -28t-11.5 -28t-27.5 -11.5h-119v-118h18h206h13v157v158zM902 299v315h-157h-158h-157v-118v-39v-158v-157h214h206h52v118q0 9 6 20q-6 10 -6 19z" />
    <glyph glyph-name="uniE602" unicode="&#xe602;" 
d="M971 143l-2 18l-3 17l-3 9l-2 9l-3 9l-4 10l-3 10l-4 9l-8 16l-6 14l-7 13l-5 11l-7 11l-5 9l-10 15l-12 19l-3 5l-1 2v1l2 7l3 6l2 11l2 6v6v5v5v6l-1 4l-2 10l-2 9l-3 8l-3 8l-4 7l-3 7l-3 6l-6 9l-2 3v2l-3 18l-1 11l-2 14l-3 15l-4 17l-3 9l-2 8l-3 9l-3 10l-3 9
l-4 10l-8 19l-5 9l-6 10l-5 9l-6 10l-7 10l-7 8l-8 10l-8 8l-8 8l-9 9l-5 3l-5 4l-11 7l-12 8l-12 7l-13 7l-13 6l-13 6l-14 4l-15 4l-13 4l-15 3l-13 4l-15 1l-14 2l-15 2h-15h-14h-14l-14 -1l-14 -2l-14 -2l-13 -2l-14 -3l-13 -3l-13 -4l-12 -4l-12 -4l-12 -6l-12 -5
l-10 -6l-10 -6l-10 -7l-10 -8l-8 -7l-12 -12l-10 -10l-10 -11l-9 -11l-9 -11l-7 -10l-7 -11l-4 -5l-3 -6l-7 -10l-5 -10l-5 -10l-4 -10l-4 -9l-3 -9l-3 -9l-4 -8l-4 -16l-3 -15l-1 -12l-2 -11v-8v-7v-6l-3 -3l-3 -4l-2 -4l-2 -4l-2 -9l-3 -9v-7l-1 -6v-6l-6 -8l-4 -9l-3 -8
l-2 -7l-2 -7l-2 -6v-6v-6v-5l1 -4l2 -7l1 -6l-3 -3l-9 -6l-12 -11l-7 -7l-7 -6l-5 -5l-4 -5l-9 -9l-8 -10l-7 -8l-8 -11l-7 -11l-7 -12l-7 -11l-5 -11l-5 -11l-4 -10l-4 -11l-3 -11l-3 -11l-3 -10l-2 -10l-1 -9l-2 -10l-1 -18v-17v-7l1 -7l2 -13l1 -6l2 -5l2 -6l1 -3l3 -7
l2 -2l2 -3h1h1h1h7l7 2l7 3l6 4l6 4l5 5l6 5l5 6l5 6l4 6l4 4l2 6l5 8l2 4l1 2v3l1 2h1l2 1h1v-1h1h1l3 -12l2 -10l4 -10l4 -9l4 -9l5 -8l4 -9l4 -7l5 -7l3 -6l10 -12l9 -11l8 -8l8 -7l7 -6l11 -10l4 -2l2 -2v-1l-1 -1h-1h-2l-8 -1l-7 -1l-6 -1l-7 -1l-5 -2l-6 -2l-5 -2
l-4 -3l-5 -1l-3 -3l-3 -2l-4 -3l-4 -5l-2 -3l-2 -2l-3 -6l-2 -5l-1 -5l-1 -4v-6v-3l-1 -4v-4l-1 -4v-3l1 -4l1 -4l2 -7l2 -3l2 -3l2 -3l3 -3l3 -3l2 -3l7 -5l8 -4l8 -5l9 -3l9 -4l11 -2l10 -4l11 -2l12 -2l11 -2l12 -1l24 -3h24h23h10h10h11l9 1l9 1l8 1l13 2l9 3l9 2l17 7
l8 3l7 3l12 7l10 6l8 5l6 5l9 -1l7 -1l14 -1h6h6l4 -1l4 -1l7 -3l8 -2l14 -5l15 -5l14 -4l14 -3l15 -4l15 -2l15 -2l14 -2l14 -1l15 -1h13h14h13l13 1l13 1l12 2l11 3l11 2l11 3l5 1l5 2l9 3l8 4l8 4l8 4l6 5l3 3l3 4l4 4l4 6l1 3l1 3l2 3l1 3v4l1 3l-1 5l-1 4l-2 5l-1 4
l-3 5l-3 5l-3 3l-4 4l-9 7l-10 8l-10 5l-10 6l-23 12l-6 3l-2 2l-1 1l12 11l5 6l4 5l8 12l7 11l6 11l6 10l8 20l7 16l4 12l2 4l2 3l2 2h1h1l6 -12l5 -12l4 -7l4 -5l4 -7l5 -7l4 -5l3 -2l2 -3l2 -1l3 -2l4 -2l3 -1h2h2l2 1l4 1l3 2l3 2l3 3l3 4l2 3l3 5l2 3l2 6l2 4l3 11
l2 12l2 14l1 8v6v7v9z" />
    <glyph glyph-name="uniE603" unicode="&#xe603;" 
d="M866.5 663.5q-97.5 97.5 -228 132t-261.5 0t-228.5 -132t-132 -228.5t0 -261.5t132 -228t228.5 -132t261.5 0t228 132t132 228t0 261.5t-132 228.5zM798 115l-101 -101l-187 186l-186 -186l-101 101l186 186l-186 187l101 101l186 -186l187 186l101 -101l-186 -187z" />
    <glyph glyph-name="uniE604" unicode="&#xe604;" 
d="M917 550q-10 0 -17 -7t-7 -17v-643q0 -19 -14 -33t-34 -14h-666q-20 0 -34 14t-14 33v643q0 10 -7 17t-17 7q-18 0 -23 -18l-1 1v-650q0 -39 28 -67t68 -28h666q40 0 68 28t28 67v643q0 10 -7 17t-17 7zM345 -21v523q0 10 -7 17t-16.5 7t-16.5 -7t-7 -17v-523
q0 -10 7 -17t16.5 -7t16.5 7t7 17zM726 -21v523q0 10 -7 17t-16.5 7t-16.5 -7t-7 -17v-523q0 -10 7 -17t16.5 -7t16.5 7t7 17zM988 717h-274l-88 88q-7 7 -18 7h-1h-190h-1q-11 0 -18 -7l-88 -88h-274q-10 0 -17 -7t-7 -17t7 -17t17 -7h285h2q10 0 18 7l88 88h166l88 -88
q8 -7 18 -7h2h285q10 0 17 7t7 17t-7 17t-17 7zM536 -21v523q0 10 -7 17t-17 7t-17 -7t-7 -17v-523q0 -10 7 -17t17 -7t17 7t7 17z" />
    <glyph glyph-name="uniE605" unicode="&#xe605;" 
d="M535 -195v460h458q10 0 16.5 7t6.5 16t-6.5 16t-16.5 7h-458v460q0 9 -6.5 16t-16 7t-16.5 -7t-7 -16v-460h-459q-9 0 -16 -7t-7 -16t7 -16t16 -7h459v-460q0 -9 7 -16t16.5 -7t16 7t6.5 16z" />
    <glyph glyph-name="uniE606" unicode="&#xe606;" 
d="M529 237q69 33 111.5 99t42.5 146q0 113 -80 193t-193.5 80t-193 -80t-79.5 -193q0 -80 42 -146t111 -99q-119 -37 -199 -135.5t-89 -225.5q-2 -4 -2 -8q0 -10 6.5 -16.5t16 -6.5t16.5 6.5t7 16.5h1q9 143 113.5 242t249 99t249.5 -99t114 -242h1q0 -10 6.5 -16.5
t16 -6.5t16 6.5t6.5 16.5q0 4 -2 8q-9 127 -88.5 225.5t-199.5 135.5zM182 482q0 94 66.5 161t161 67t161 -67t66.5 -161t-66.5 -161t-161 -67t-161 67t-66.5 161zM1022 -124q-9 127 -89 225.5t-199 135.5q69 33 111 99t42 146q0 113 -79.5 193t-193.5 80q-16 0 -36 -3
q31 -19 55 -43q88 -8 148.5 -73t60.5 -154t-60 -154t-147 -72q2 -6 2 -13q0 -1 -1 -3v-1q33 -19 58 -39q117 -26 196.5 -118.5t86.5 -213.5h1q0 -10 7 -16.5t16.5 -6.5t16 6.5t6.5 16.5q0 4 -2 8z" />
    <glyph glyph-name="uniE607" unicode="&#xe607;" 
d="M512 747q-185 0 -316 -131t-131 -316t131 -316t316 -131t316 131t131 316t-131 316t-316 131zM512 -117q-113 0 -209 56t-152 152t-56 209t56 209t152 152t209 56t209 -56t152 -152t56 -209t-56 -209t-152 -152t-209 -56zM683 492l-171 -172l-171 172l-21 -21l172 -171
l-172 -171l21 -21l171 172l171 -172l21 21l-172 171l172 171z" />
    <glyph glyph-name="uniE608" unicode="&#xe608;" 
d="M211 622l635 -635l-33 -33l-635 635zM846 589l-635 -635l-33 33l635 635z" />
    <glyph glyph-name="uniE609" unicode="&#xe609;" 
d="M996 263h-969q-6 0 -10 4t-4 10t4 10t10 4h969q6 0 10.5 -4t4.5 -10t-4.5 -10t-10.5 -4z" />
    <glyph glyph-name="uniE60A" unicode="&#xe60a;" 
d="M730 -92l-394 392l394 392q8 7 8.5 17.5t-6 17t-17 6t-18.5 -8.5l-406 -404q-8 -8 -8 -20t9 -20l405 -404q8 -8 18.5 -8.5t17 6t6 17t-8.5 17.5z" />
    <glyph glyph-name="uniE60B" unicode="&#xe60b;" 
d="M289.5 -126.5q6.5 -6.5 16.5 -6t18 8.5l406 404q9 8 8 20q1 12 -8 20l-406 404q-8 8 -18 8.5t-16.5 -6t-6 -17t8.5 -17.5l394 -392l-394 -392q-8 -7 -8.5 -17.5t6 -17z" />
    <glyph glyph-name="uniE60C" unicode="&#xe60c;" 
d="M937 78.5q7 6.5 6 17t-8 17.5l-404 406q-8 9 -20 9t-21 -9l-403 -406q-8 -7 -8.5 -17.5t6 -17t16.5 -6t18 8.5l392 394l391 -394q8 -8 18 -8.5t17 6z" />
    <glyph glyph-name="uniE60D" unicode="&#xe60d;" 
d="M902 519l-391 -394l-392 394q-8 8 -18 8.5t-16.5 -6t-6 -17t8.5 -17.5l403 -406q9 -9 21 -9t20 9l404 406q7 7 8 17.5t-6 17t-17 6t-18 -8.5z" />
    <glyph glyph-name="uniE60E" unicode="&#xe60e;" 
d="M951 -7h-878l439 614z" />
    <glyph glyph-name="uniE60F" unicode="&#xe60f;" 
d="M512 -7l-439 614h878z" />
    <glyph glyph-name="uniE610" unicode="&#xe610;" 
d="M819 739v-878l-614 439z" />
    <glyph glyph-name="uniE611" unicode="&#xe611;" 
d="M205 -139v878l614 -439z" />
    <glyph glyph-name="uniE612" unicode="&#xe612;" 
d="M765 198l-223 -223q-6 -6 -14.5 -6t-14.5 6l-223 223q-6 6 -6 14.5t6 14.5t14.5 6t14.5 -6l188 -188v605q0 8 6 14t14.5 6t14.5 -6t6 -14v-605l188 188q6 6 14.5 6t14.5 -6t6 -14.5t-6 -14.5z" />
    <glyph glyph-name="uniE613" unicode="&#xe613;" 
d="M875 316.5q0 -8.5 -6 -14.5t-15 -6h-605l189 -188q6 -6 6 -14.5t-6 -14.5t-14.5 -6t-14.5 6l-223 223q-6 6 -6 14.5t6 14.5l223 223q6 6 14.5 6t14.5 -6t6 -14.5t-6 -14.5l-189 -188h605q9 0 15 -6t6 -14.5z" />
    <glyph glyph-name="uniE614" unicode="&#xe614;" 
d="M875 316.5q0 -8.5 -6 -14.5l-223 -223q-6 -6 -14.5 -6t-14.5 6t-6 14.5t6 14.5l188 188h-605q-8 0 -14 6t-6 14.5t6 14.5t14 6h605l-188 188q-6 6 -6 14.5t6 14.5t14.5 6t14.5 -6l223 -223q6 -6 6 -14.5z" />
    <glyph glyph-name="uniE615" unicode="&#xe615;" 
d="M765 396q-6 -6 -14.5 -6t-14.5 6l-188 188v-605q0 -8 -6 -14t-14.5 -6t-14.5 6t-6 14v605l-188 -188q-6 -6 -14.5 -6t-14.5 6t-6 14.5t6 14.5l223 223q6 6 14.5 6t14.5 -6l223 -223q6 -6 6 -14.5t-6 -14.5z" />
    <glyph glyph-name="uniE616" unicode="&#xe616;" 
d="M924 34l-68 119q-5 9 -14.5 11.5t-17.5 -2.5t-10.5 -14t2.5 -18l68 -119q13 -21 6 -33t-32 -12h-699q-25 0 -31.5 12t5.5 34l349 604q12 21 26.5 21t26.5 -20l170 -294q4 -9 13.5 -11.5t18 2.5t11 14t-2.5 18l-170 294q-25 43 -66.5 42.5t-66.5 -42.5l-349 -605
q-26 -45 -6 -80t72 -35h699q52 0 72 35t-6 79zM510.5 464q-9.5 0 -16.5 -7t-7 -16.5t7 -16.5t16.5 -7t16.5 7t7 16.5t-7 16.5t-16.5 7zM487 351v-289q0 -9 7 -15t16.5 -6t16.5 6t7 15v289q0 8 -7 14t-16.5 6t-16.5 -6t-7 -14z" />
    <glyph glyph-name="uniE617" unicode="&#xe617;" 
d="M512 684q-113 0 -193.5 -85t-80.5 -204q0 -74 33.5 -138.5t91.5 -104.5v-54q0 -38 18.5 -71.5t50.5 -53.5q9 -25 31 -40t48.5 -15t48.5 15t32 40q32 20 50 53.5t18 71.5v54q58 40 91.5 104.5t33.5 138.5q0 119 -80 204t-193 85zM410 140h203l1 -16h-204v16zM561 8l-9 -4
l-2 -10q-3 -13 -14 -21.5t-24.5 -8.5t-24 8.5t-13.5 21.5l-3 10l-9 4q-3 3 -9 7h92q10 0 16.5 6.5t6.5 16t-6.5 16.5t-16.5 7h-126h-1h-1q-3 7 -5 16h199q-9 -46 -50 -69zM627 186h-231q-52 33 -81.5 89t-29.5 120q0 100 66.5 171t160.5 71t160.5 -71t66.5 -171
q0 -64 -30 -120t-82 -89zM224 413.5q0 9.5 -7 16t-16 6.5h-95q-10 0 -16.5 -6.5t-6.5 -16t6.5 -16.5t16.5 -7h95q9 0 16 7t7 16.5zM920 436h-95q-9 0 -16 -6.5t-7 -16t7 -16.5t16 -7h95q10 0 16.5 7t6.5 16.5t-6.5 16t-16.5 6.5zM150 596l82 -48q6 -3 12 -3q13 0 20 12
q5 8 2.5 17.5t-11.5 13.5l-82 48q-8 5 -17.5 2.5t-14 -11t-2 -17.5t10.5 -14zM878 229l-82 47q-8 5 -17.5 2.5t-14 -11t-2 -17.5t10.5 -14l82 -47q6 -4 12 -4q13 0 20 12q5 8 2.5 17.5t-11.5 14.5zM229 277l-82 -47q-8 -5 -10.5 -14t2.5 -18q6 -11 20 -11q6 0 11 3l83 47
q8 5 10.5 14.5t-2.5 17.5t-14 10.5t-18 -2.5zM782 546q6 0 11 3l83 48q8 5 10.5 14t-2.5 17.5t-14 11t-18 -2.5l-82 -47q-8 -5 -10.5 -14.5t2.5 -17.5q6 -12 20 -12z" />
    <glyph glyph-name="uniE618" unicode="&#xe618;" 
d="M841 521.5q11 -10.5 19 -1.5l23 25q8 9 -3 19.5t-20 1.5l-22 -25q-8 -9 3 -19.5zM733 574q15 -3 17 9l6 33q1 5 -3 9.5t-10 5.5q-15 3 -17 -9l-6 -33q-1 -5 3 -9.5t10 -5.5zM597 558q7 -10 20 -2t6 18l-18 29q-6 10 -19 2t-7 -19zM925 304l-31 12q-12 4 -17 -10.5
t7 -18.5l31 -11q12 -4 17 10t-7 18zM735 331q-23 83 -91 135t-155 52q-72 0 -133 -37.5t-94 -101.5q-79 -8 -132.5 -67t-53.5 -139q0 -78 50.5 -136.5t126.5 -69.5l432 1h24q66 12 109.5 64.5t43.5 120.5q0 60 -35 109.5t-92 68.5zM684 6h-401h-9q-66 4 -111.5 52t-45.5 115
q0 66 45 114t111 52q37 -2 72 -21t55 -48q6 -11 17 -11q9 0 15 6t6 15q0 4 -2 8q0 1 -1 2t-1 2l-1 1l-1 1q-47 68 -125 81q29 48 77.5 75t104.5 27q76 0 134 -46.5t75 -120.5l3 -12l12 -3q48 -13 78.5 -52.5t30.5 -89.5q0 -59 -40 -101.5t-98 -45.5zM947 426q-2 7 -6 10.5
t-9 2.5l-33 -6q-12 -3 -9 -18q1 -6 5.5 -9.5t9.5 -2.5l33 6q12 2 9 17zM681 557q-28 -2 -52 -13q-4 -1 -7 -3l-1 -1h-1v-1q-7 -7 -7 -16q1 -9 7.5 -15t15.5 -5l2 1h1v-1q23 10 45 11q57 4 100 -34t46 -95q2 -30 -10 -60l-1 -1v-2v0q-1 -5 -1 -6q1 -9 8 -15.5t16 -5.5t15 8h1
v1q1 1 1 2q2 3 2 6q15 35 12 76q-5 75 -61 124.5t-131 44.5z" />
    <glyph glyph-name="uniE619" unicode="&#xe619;" 
d="M878 221q0 -11 7.5 -18.5t18.5 -7.5t18.5 7.5t7.5 18.5t-7.5 18.5t-18.5 7.5t-18.5 -7.5t-7.5 -18.5zM400 349q11 0 19 7.5t8 18.5t-8 18.5t-19 7.5h-217q-11 0 -18.5 -7.5t-7.5 -18.5t7.5 -18.5t18.5 -7.5h217zM537 503q11 0 18.5 7.5t7.5 18.5t-7.5 18.5t-18.5 7.5
t-19 -7.5t-8 -18.5t8 -18.5t19 -7.5zM91 221q0 -11 7.5 -18.5t18.5 -7.5h708q11 0 18.5 7.5t7.5 18.5t-7.5 18.5t-18.5 7.5h-708q-11 0 -18.5 -7.5t-7.5 -18.5zM915 503q11 0 18.5 7.5t7.5 18.5t-7.5 18.5t-18.5 7.5t-18.5 -7.5t-7.5 -18.5t7.5 -18.5t18.5 -7.5zM539 375
q0 -11 8 -18.5t19 -7.5h348q11 0 19 7.5t8 18.5t-8 18.5t-19 7.5h-348q-11 0 -19 -7.5t-8 -18.5zM621 503h217q11 0 18.5 7.5t7.5 18.5t-7.5 18.5t-18.5 7.5h-217q-11 0 -18.5 -7.5t-7.5 -18.5t7.5 -18.5t18.5 -7.5zM107 100q-11 0 -19 -7.5t-8 -18.5t8 -18.5t19 -7.5
t18.5 7.5t7.5 18.5t-7.5 18.5t-18.5 7.5zM532 100h-349q-11 0 -18.5 -7.5t-7.5 -18.5t7.5 -18.5t18.5 -7.5h349q11 0 18.5 7.5t7.5 18.5t-7.5 18.5t-18.5 7.5zM621 100q-11 0 -18.5 -7.5t-7.5 -18.5t7.5 -18.5t18.5 -7.5t18.5 7.5t7.5 18.5t-7.5 18.5t-18.5 7.5zM915 100
h-217q-11 0 -18.5 -7.5t-7.5 -18.5t7.5 -18.5t18.5 -7.5h217q11 0 18.5 7.5t7.5 18.5t-7.5 18.5t-18.5 7.5zM107 503h349q11 0 18.5 7.5t7.5 18.5t-7.5 18.5t-18.5 7.5h-349q-11 0 -18.5 -7.5t-7.5 -18.5t7.5 -18.5t18.5 -7.5zM458 375q0 -11 8 -18.5t19 -7.5t18.5 7.5
t7.5 18.5t-7.5 18.5t-18.5 7.5t-19 -7.5t-8 -18.5zM107 349q11 0 18.5 7.5t7.5 18.5t-7.5 18.5t-18.5 7.5t-19 -7.5t-8 -18.5t8 -18.5t19 -7.5z" />
    <glyph glyph-name="uniE61A" unicode="&#xe61a;" 
d="M169 328h-71q-11 0 -18.5 -7.5t-7.5 -18t7.5 -18.5t18.5 -8h71q11 0 18.5 8t7.5 18.5t-7.5 18t-18.5 7.5zM510.5 617q10.5 0 18 8t7.5 18v72q0 11 -7.5 18.5t-18 7.5t-18.5 -7.5t-8 -18.5v-72q0 -10 8 -18t18.5 -8zM250 79l-50 -51q-8 -7 -8 -18t7.5 -18.5t18.5 -7.5
t19 8l50 50q8 8 8 18.5t-7.5 18.5t-18.5 8t-19 -8zM251 525q8 -8 18.5 -8t18 7.5t7.5 18.5t-7 18l-51 51q-8 8 -18.5 8t-18 -8t-7.5 -18.5t7 -18.5zM770 525l50 50q8 8 8 18.5t-7.5 18.5t-18.5 8t-19 -8l-50 -51q-8 -7 -8 -18t7.5 -18.5t18.5 -7.5t19 8zM923 328h-72
q-10 0 -18 -7.5t-8 -18t8 -18.5t18 -8h72q11 0 18.5 8t7.5 18.5t-7.5 18t-18.5 7.5zM770 79q-8 8 -18.5 8t-18 -8t-7.5 -18.5t7 -18.5l51 -50q7 -8 18 -8t18.5 7.5t7.5 18.5t-7 18zM510 552q-103 0 -176.5 -73.5t-73.5 -177t73.5 -176.5t176.5 -73t176.5 73t73.5 176.5
t-73.5 177t-176.5 73.5zM510 100q-83 0 -142.5 59t-59.5 142.5t59.5 142.5t142.5 59t142 -59t59 -142.5t-59 -142.5t-142 -59zM510.5 -13q-10.5 0 -18.5 -7.5t-8 -18.5v-71q0 -11 8 -18.5t18.5 -7.5t18 7.5t7.5 18.5v71q1 11 -7 18.5t-18.5 7.5z" />
    <glyph glyph-name="uniE61B" unicode="&#xe61b;" 
d="M129 81q5 0 11 3q122 83 280 43h2h2q10 0 17.5 7t7.5 17q0 14 -14 21v0q-4 2 -9 2q-46 12 -90 14t-73.5 -2.5t-60.5 -16t-44.5 -18.5t-31.5 -18q-5 -3 -7 -5h-1q0 -1 -1 -1q-5 -3 -6 -4q-8 -7 -8 -17t7.5 -17.5t18.5 -7.5zM659 17q-54 5 -139 38q-56 23 -114.5 31
t-101.5 3.5t-85 -17t-62.5 -22t-37.5 -19.5l-1 -1h-1q-5 -4 -6 -5q-8 -7 -8 -17t7.5 -17.5t18.5 -7.5q5 0 11 3v-1q6 5 19 12t51 20.5t78.5 20t98.5 1t113 -28.5q94 -36 157 -42v1l1 -1h1q11 0 18.5 7.5t7.5 17.5t-7.5 17t-18.5 7zM518 132q0 10 -7.5 17t-18 7t-18 -7
t-7.5 -17t7.5 -17t18 -7t18 7t7.5 17zM889 155q-10 0 -18 -7q-3 -3 -11 -8t-34.5 -14.5t-58.5 -13.5t-84.5 0.5t-110.5 22.5q-6 3 -11 3q-11 0 -18.5 -7t-7.5 -17q0 -15 15 -22l-1 -1q94 -30 176 -30q113 0 177 49q13 7 13 20q0 10 -7.5 17.5t-18.5 7.5zM802 431
q-26 94 -101 153t-170 59q-79 0 -147 -42.5t-104 -114.5q-87 -10 -145.5 -76.5t-58.5 -157.5q0 -39 14 -78q0 -5 3 -9q7 -12 19 -12q9 0 16 7t7 17q0 3 -2 7v0v3q-12 33 -12 65q0 75 49.5 129t121.5 59q41 -2 79.5 -23.5t60.5 -54.5q7 -12 20 -12q9 0 15.5 7t6.5 16
q0 5 -2 9v1l-1 1q-1 2 -2 3l-1 1q0 1 -1 2q-51 76 -137 91q32 54 85.5 85t115.5 31q83 0 147.5 -53t82.5 -136l3 -14l13 -3q53 -15 86.5 -60t33.5 -101q0 -26 -8 -52l-1 -5q0 -10 6.5 -16.5t16.5 -6.5q16 0 21 16q10 28 10 64q0 68 -39 123.5t-101 77.5zM727.5 17
q-10.5 0 -18 -7t-7.5 -17t7.5 -17.5t18 -7.5t18 7.5t7.5 17.5t-7.5 17t-18 7zM889 57q-10 0 -18 -7v1q-29 -26 -87 -35q-16 -6 -16 -23q0 -10 7.5 -17.5t17.5 -7.5h2l1 1v-1q63 11 106 44q13 7 13 21q0 10 -7.5 17t-18.5 7z" />
    <glyph glyph-name="uniE61C" unicode="&#xe61c;" 
d="M366.5 209q-19.5 0 -33 -13.5t-13.5 -33t13.5 -33t33 -13.5t33 13.5t13.5 33t-13.5 33t-33 13.5zM362.5 65q-12.5 0 -21 -9t-8.5 -21t8.5 -20.5t21 -8.5t21 8.5t8.5 20.5t-8.5 21t-21 9zM514 -1q-12 0 -20.5 -9t-8.5 -21t8.5 -20.5t20.5 -8.5t20.5 8.5t8.5 20.5t-8.5 21
t-20.5 9zM669 207q-22 0 -37.5 -15.5t-15.5 -38t15.5 -38t37.5 -15.5t37.5 15.5t15.5 38t-15.5 38t-37.5 15.5zM805 457q-26 93 -101.5 150.5t-170.5 57.5q-80 0 -147.5 -42t-104.5 -112q-87 -9 -146 -74.5t-59 -154.5q0 -77 47 -138.5t120 -81.5v1q4 -1 5 -1q9 0 15 6t6 15
q0 16 -17 20l1 1q-63 21 -97.5 67.5t-34.5 110.5q0 74 49.5 127t122.5 57q42 -2 80.5 -23t60.5 -53q7 -12 19 -12q10 0 16.5 6.5t6.5 16.5q0 4 -2 9q0 1 -1 2l-2 2l-2 3q-51 75 -138 90q32 52 86 82.5t116 30.5q83 0 148 -52t83 -134l3 -13l14 -3q53 -14 86.5 -58t33.5 -99
q0 -57 -30.5 -100.5t-82.5 -58.5q-13 -5 -13 -19q0 -9 6.5 -15t14.5 -6h2l2 1h1q3 0 5 2q62 21 101 75t39 121t-39 121t-102 75zM669 49q-12 0 -20.5 -9t-8.5 -21t8.5 -20.5t20.5 -8.5t20.5 8.5t8.5 20.5t-8.5 21t-20.5 9zM513.5 144q-19.5 0 -33 -13.5t-13.5 -33
t13.5 -33.5t33 -14t33.5 14t14 33.5t-14 33t-33.5 13.5z" />
    <glyph glyph-name="uniE61D" unicode="&#xe61d;" 
d="M802 402q-26 92 -101 149t-170 57q-79 0 -146.5 -41.5t-103.5 -111.5q-87 -9 -145.5 -74t-58.5 -154q0 -85 55.5 -149.5t138.5 -76.5l476 1h26q73 13 121 70.5t48 132.5q0 67 -39 121.5t-101 75.5zM745 43h-440l-10 1q-73 4 -123 57t-50 126t49.5 126t121.5 57
q41 -2 79.5 -23t60.5 -53q7 -11 19 -11q9 0 16 6.5t7 15.5q0 5 -2 9l-2 2l-1 2l-1 2l-1 1q-51 75 -138 90q33 52 86.5 82t114.5 30q83 0 147.5 -51.5t82.5 -132.5l3 -13l13 -4q53 -14 86.5 -57.5t33.5 -99.5q0 -64 -44 -111t-108 -51z" />
    <glyph glyph-name="uniE61E" unicode="&#xe61e;" 
d="M454 -14q-9 0 -15.5 -6.5t-6.5 -15.5t6.5 -15.5t15.5 -6.5t16 6.5t7 15.5t-7 15.5t-16 6.5zM341.5 31q-9.5 0 -16 -6.5t-6.5 -16t6.5 -16t16 -6.5t16 6.5t6.5 16t-6.5 16t-16 6.5zM454 212q-9 0 -15.5 -6.5t-6.5 -15.5v-160q0 -10 6.5 -16.5t15.5 -6.5t16 6.5t7 16.5v160
q0 9 -7 15.5t-16 6.5zM341.5 257q-9.5 0 -16 -6.5t-6.5 -16.5v-160q0 -9 6.5 -15.5t16 -6.5t16 6.5t6.5 15.5v160q0 10 -6.5 16.5t-16 6.5zM678.5 -14q-9.5 0 -16 -6.5t-6.5 -15.5t6.5 -15.5t16 -6.5t16 6.5t6.5 15.5t-6.5 15.5t-16 6.5zM678.5 212q-9.5 0 -16 -6.5
t-6.5 -15.5v-160q0 -10 6.5 -16.5t16 -6.5t16 6.5t6.5 16.5v160q0 9 -6.5 15.5t-16 6.5zM566.5 31q-9.5 0 -16 -6.5t-6.5 -16t6.5 -16t16 -6.5t16 6.5t6.5 16t-6.5 16t-16 6.5zM804 463q-25 91 -100.5 147.5t-171.5 56.5q-79 0 -147 -41t-104 -111q-88 -8 -147 -72t-59 -152
q0 -76 47 -136t120 -80l1 1l4 -1q9 0 15 6t6 14q0 16 -16 20v1q-62 21 -97 66.5t-35 108.5q0 72 50 124t122 57q42 -2 80.5 -23t60.5 -52q7 -12 20 -12q9 0 15.5 6.5t6.5 16.5q0 4 -2 9l-1 1l-1 2l-3 4q-51 73 -138 88q33 51 86.5 80.5t115.5 29.5q84 0 148.5 -50.5
t83.5 -130.5l3 -13l13 -4q53 -14 86.5 -57t33.5 -97q0 -55 -30.5 -98.5t-81.5 -57.5q-13 -5 -13 -19q0 -8 6 -14t14 -6h4h1q3 1 5 2q62 21 101 74t39 119t-39 119t-102 74zM566.5 257q-9.5 0 -16 -6.5t-6.5 -16.5v-160q0 -9 6.5 -15.5t16 -6.5t16 6.5t6.5 15.5v160
q0 10 -6.5 16.5t-16 6.5z" />
    <glyph glyph-name="uniE61F" unicode="&#xe61f;" 
d="M649 107h-365q-9 0 -15.5 6.5t-6.5 16t6.5 16t15.5 6.5h365q9 0 15.5 -6.5t6.5 -16t-6.5 -16t-15.5 -6.5zM649 220h-365q-9 0 -15.5 7t-6.5 16.5t6.5 16t15.5 6.5h365q9 0 15.5 -6.5t6.5 -16t-6.5 -16.5t-15.5 -7zM375 448q-9 0 -15.5 6.5t-6.5 16t6.5 16t15.5 6.5h183
q9 0 15.5 -6.5t6.5 -16t-6.5 -16t-15.5 -6.5h-183zM671 356.5q0 -9.5 -6.5 -16t-15.5 -6.5h-365q-9 0 -15.5 6.5t-6.5 16t6.5 16.5t15.5 7h365q9 0 15.5 -7t6.5 -16.5zM853 -53h-682q-29 0 -49 20t-20 49v568q0 29 20 49t49 20h341h205h68q19 0 32.5 -13.5t13.5 -32.5v-318
v-75v-130q0 -10 -7 -16.5t-16.5 -6.5t-16 6.5t-6.5 16.5v136v69v273q0 19 -13.5 32t-31.5 13h-274h-68h-205q-18 0 -31.5 -13t-13.5 -32v-524q0 -19 13.5 -32t31.5 -13h569h46h23q18 0 31.5 13t13.5 32v524q0 9 6.5 15.5t16 6.5t16.5 -6.5t7 -15.5v-524v-22q0 -29 -20 -49
t-49 -20z" />
    <glyph glyph-name="uniE620" unicode="&#xe620;" 
d="M839 633h-654q-50 0 -85.5 -35.5t-35.5 -84.5v-425q0 -50 35.5 -85.5t85.5 -35.5h654q50 0 85 35.5t35 85.5v425q0 49 -35 84.5t-85 35.5zM185 571h654q24 0 41 -17q6 -7 10 -14q-2 -1 -4 -3l-367 -256l-7 -6l-8 6l-367 256q-1 2 -4 3q5 7 11 14q17 17 41 17zM880 47
q-17 -17 -41 -17h-654q-24 0 -41 17t-17 41v386l367 -257h1v-1h1q7 -5 15 -5h1h1q8 0 15 5h1v1v0l368 257v-386q0 -24 -17 -41z" />
    <glyph glyph-name="uniE621" unicode="&#xe621;" 
d="M873 56zM922 336q-8 8 -19.5 8t-19.5 -7l-19 -18q-4 101 -56.5 185.5t-139 133t-189.5 48.5q-104 0 -193 -52t-140.5 -140.5t-51.5 -193.5t51.5 -193.5t140.5 -140.5t193 -52q85 0 162 36t132 101q5 4 8 9l1 1l2 3l-1 1q2 4 2 9q0 12 -8.5 21t-20.5 9q-15 0 -24 -14
q-47 -57 -113 -88t-140 -31q-89 0 -164.5 44t-119.5 120t-44 165t44 165t119.5 120t164.5 44t164.5 -43.5t119.5 -118.5t45 -163l-33 32q-8 8 -19.5 8t-19.5 -7q-8 -9 -8 -20.5t8 -19.5l69 -69q8 -9 20 -9h1q3 -1 5 -1q11 0 20 8l71 71q8 8 8 19.5t-8 19.5z" />
    <glyph glyph-name="uniE622" unicode="&#xe622;" 
d="M934 -73l-196 189l2 3q82 101 82 231q0 101 -49.5 186t-134.5 134.5t-185.5 49.5t-185.5 -49.5t-134.5 -134.5t-49.5 -185.5t49.5 -185.5t134.5 -134.5t186 -49.5q138 0 242 91l3 2l195 -187h2v-1q8 -6 17 -6q12 0 20.5 8.5t8.5 21.5q0 9 -7 17zM452.5 40
q-128.5 0 -219.5 91t-91 219.5t91 219.5t219.5 91t219.5 -91t91 -219.5t-91 -219.5t-219.5 -91z" />
    <glyph glyph-name="uniE623" unicode="&#xe623;" 
d="M873 56zM166 370q-27 0 -46.5 -19t-19.5 -45.5t19.5 -45t46.5 -18.5t46.5 18.5t19.5 45t-19.5 45.5t-46.5 19zM364 572h527q14 0 23.5 9.5t9.5 22.5t-9.5 22.5t-23.5 9.5h-527q-14 0 -23.5 -9.5t-9.5 -22.5t9.5 -22.5t23.5 -9.5zM166 71q-27 0 -46.5 -18.5t-19.5 -45
t19.5 -45t46.5 -18.5t46.5 18.5t19.5 45t-19.5 45t-46.5 18.5zM891 338h-527q-14 0 -23.5 -9.5t-9.5 -22.5t9.5 -22.5t23.5 -9.5h527q14 0 23.5 9.5t9.5 22.5t-9.5 22.5t-23.5 9.5zM166 668q-27 0 -46.5 -18.5t-19.5 -45t19.5 -45.5t46.5 -19t46.5 19t19.5 45.5t-19.5 45
t-46.5 18.5zM891 40h-527q-14 0 -23.5 -9.5t-9.5 -23t9.5 -22.5t23.5 -9h527q14 0 23.5 9t9.5 22.5t-9.5 23t-23.5 9.5z" />
    <glyph glyph-name="uniE624" unicode="&#xe624;" 
d="M902.5 16.5q-9.5 9.5 -22.5 9.5h-751q-13 0 -22.5 -9.5t-9.5 -23t9.5 -23t22.5 -9.5h751q13 0 22.5 9.5t9.5 23t-9.5 23zM880 351h-751q-13 0 -22.5 -9.5t-9.5 -23t9.5 -23t22.5 -9.5h751q13 0 22.5 9.5t9.5 23t-9.5 23t-22.5 9.5zM903 658q-10 9 -23 9h-751
q-13 0 -22.5 -9.5t-9.5 -23t9.5 -23t22.5 -9.5h751q13 0 22.5 9.5t9.5 23t-9 23.5z" />
    <glyph glyph-name="uniE625" unicode="&#xe625;" 
d="M709 194q57 45 89.5 110t32.5 140q0 133 -93.5 226t-225.5 93t-225.5 -93t-93.5 -226q0 -75 32.5 -140t89.5 -110q-101 -52 -165 -147.5t-72 -211.5h58q8 109 73 196t165 126q66 -32 138 -32t138 32q100 -39 165 -126t73 -196h58q-8 116 -72 211.5t-165 147.5zM512 183
q-108 0 -184.5 76.5t-76.5 185t76.5 184.5t184.5 76t184.5 -76t76.5 -184.5t-76.5 -185t-184.5 -76.5zM512 183z" />
    <glyph glyph-name="uniE626" unicode="&#xe626;" 
d="M906 118q-23 -72 -71 -143q-73 -112 -146 -112q-28 0 -80 18q-50 18 -87 18q-35 0 -81 -18q-46 -20 -75 -20q-87 0 -172 148q-84 149 -84 288q0 130 64 213t163 83q41 0 101 -18q59 -17 79 -17q25 0 81 20q59 19 99 19q68 0 122 -37q30 -21 59 -57q-45 -38 -65 -68
q-37 -53 -37 -118q0 -71 39.5 -127.5t90.5 -71.5zM691 788q0 -35 -17 -78t-53 -79q-31 -30 -62 -41q-21 -6 -59 -9q2 85 45 146q42 62 142 85q1 -2 2 -6.5t1 -6.5t3 -5.5t3 -5.5h-5z" />
    <glyph glyph-name="uniE627" unicode="&#xe627;" 
d="M499 467q20 0 32 12t12 32t-12 32t-32 12q-21 0 -37 -12.5t-16 -31.5t16 -31.5t37 -12.5zM253 555q-21 0 -37 -12.5t-16 -31.5t16 -31.5t37 -12.5q20 0 32 12t12 32t-12 32t-32 12zM1024 186q0 104 -84 182t-203 87v6q-24 111 -130 185t-240 74q-99 0 -184 -42
t-134 -114.5t-49 -158.5q0 -142 138 -243l-32 -94q-3 -10 5 -17q4 -4 10 -4q4 0 8 2l117 59l15 -3q68 -14 106 -14q17 0 34 1q7 1 11 6q33 -81 114.5 -132t183.5 -51q37 0 103 17l91 -50q3 -2 7 -2q6 0 11 3q8 7 5 18l-23 77q120 95 120 208zM399 124q-16 -1 -32 -1
q-35 0 -100 13l-20 4q-5 1 -10 -1l-88 -45l23 69q3 12 -6 19q-134 93 -134 223q0 77 45 142t122 103t168 38q123 0 219.5 -66t118.5 -166q-129 -1 -219.5 -80t-90.5 -190q0 -31 9 -63q-3 1 -5 1zM875 -4q-8 -6 -5 -17l15 -50l-62 34q-4 2 -8 2q-2 0 -4 -1q-67 -17 -101 -17
q-117 0 -200 70t-83 169t83 169t200 70q115 0 198.5 -71t83.5 -168q0 -49 -30 -98t-87 -92zM613 300q-13 0 -24 -11t-11 -24t11 -24t24 -11q19 0 31.5 10.5t12.5 24.5t-12.5 24.5t-31.5 10.5zM806 300q-13 0 -24 -11t-11 -24t11 -24t24 -11q19 0 31.5 10.5t12.5 24.5
t-12.5 24.5t-31.5 10.5z" />
    <glyph glyph-name="uniE628" unicode="&#xe628;" 
d="M318 451v-13q18 -105 59 -174.5t116 -108.5q-30 61 -30 121q0 87 44 152q44 -66 44 -152q0 -73 -35 -135l-2 -1h-1q82 46 120.5 116.5t57.5 181.5v117q-54 -6 -107.5 -40t-85.5 -84q-69 107 -181 123q-1 -13 -0.5 -33t1 -44.5t0.5 -25.5zM808 458v-16q0 -206 181 -292
q35 71 35 126q0 101 -63 179t-153 97v-94zM224 435v118q-103 -18 -162.5 -94.5t-59.5 -182.5q0 -78 37 -142q185 100 185 301zM279 283q-53 -132 -188 -213q79 -75 186 -75q103 0 181 71q-117 70 -179 217zM747 289q-62 -141 -195 -222q77 -72 182 -72q108 0 187 77
q-121 80 -174 217z" />
    <glyph glyph-name="uniE629" unicode="&#xe629;" 
d="M758 311q-17 3 -22.5 10.5t-1.5 12.5l4 6q2 3 4 7.5t6.5 18t5 26.5t-5 29.5t-18.5 29.5q-33 28 -77 24t-82.5 -16.5t-38.5 -14.5q-12 -4 -19.5 -5.5t-12 0.5t-6.5 4t-1.5 8t1 10.5t3 14.5t3.5 16q0 18 -2.5 33t-12.5 31.5t-26.5 25t-47 8t-71.5 -14.5q-119 -41 -241 -189
q-26 -31 -25 -31q-23 -32 -39.5 -65t-23 -55.5t-9 -43.5t-2.5 -28t1 -10q6 -56 33.5 -100.5t65.5 -72t89.5 -47t99 -28t100.5 -13.5q87 -6 179.5 14.5t173 71t113.5 120.5q19 41 19.5 77t-12 59t-33 40.5t-38.5 25.5t-33 11zM401 -53q-125 -6 -214 49t-89 139t88 144t215 66
q129 6 216.5 -42.5t87.5 -130.5q0 -85 -89.5 -152t-214.5 -73zM368 271q-35 -4 -61.5 -16t-42 -28t-26 -34t-14.5 -35.5t-5.5 -32t-1 -23.5t1.5 -8v-6q0 -4 2 -14t6.5 -19t14 -19.5t22.5 -17.5q47 -26 97 -26.5t89 18.5t66 53q15 20 20.5 49t-2.5 59t-26.5 54.5t-55 38
t-84.5 7.5zM325.5 49.5q-23.5 -2.5 -40.5 9.5t-17 31q0 21 15.5 38t38.5 19q27 3 43.5 -10t16.5 -33t-16.5 -36t-40 -18.5zM425 134q-8 -6 -16.5 -5t-13.5 8q-4 7 -2 16.5t9 15.5q10 7 18.5 6t13 -8.5t2 -17t-10.5 -15.5zM841 379q10 0 17.5 7t9.5 16v3q4 38 -2 67t-19 45
t-30 26.5t-34.5 13.5t-32.5 3.5t-24 -0.5l-10 -1q-11 0 -19 -8.5t-8 -20t8 -19.5t19 -8q37 7 58 0.5t29.5 -22.5t10.5 -32.5t1 -29.5l-2 -12q0 -12 8 -20t20 -8zM820 702q-59 14 -138 -1l-2 -1h-1l-1 -1q-13 -4 -21.5 -14.5t-8.5 -24.5q0 -17 12 -28.5t29 -11.5q21 3 36 8
q6 1 20.5 2.5t38.5 -4.5t48 -15.5t49.5 -30.5t42.5 -50q31 -70 13 -134q-8 -19 -8 -39q0 -16 11.5 -26t28.5 -10t26 6.5t12 27.5h1q21 65 16 118t-23 92t-49.5 67.5t-64 45t-67.5 24.5z" />
    <glyph glyph-name="uniE62A" unicode="&#xe62a;" 
d="M773 221h248q3 24 3 53q0 124 -62 232q65 174 -16 256q-38 39 -135 32t-215 -59q-16 1 -35 1q-161 0 -286 -98.5t-163 -251.5q104 133 235 196q-2 -1 -68 -67q-90 -90 -156 -197.5t-94.5 -199t-28 -164.5t32.5 -106q52 -47 133 -42.5t185 55.5q99 -50 210 -50
q151 0 271 87t167 226h-250q-27 -49 -74.5 -78t-105 -29t-105 29t-74.5 78q-24 45 -24 96v1h407zM367 343q4 77 60 130.5t134 53.5t134 -53.5t61 -130.5h-389zM944 710q52 -53 4 -183q-80 122 -215 177q152 65 211 6zM98 -135q-33 35 -25 100.5t52 152.5q27 -76 78 -138
t119 -103q-77 -35 -134 -38.5t-90 26.5z" />
    <glyph glyph-name="uniE62B" unicode="&#xe62b;" 
d="M510 812q-104 0 -193 -36.5t-152.5 -102.5t-99.5 -161t-36 -207q0 -101 35.5 -195t97.5 -165.5t153 -114t195 -42.5q105 0 196.5 42.5t154 114t98.5 165.5t36 195q0 113 -37 208t-101.5 160.5t-154 102t-192.5 36.5zM688 313q0 -43 -1 -76t-4.5 -78.5t-10.5 -78.5
t-20.5 -68.5t-32 -57.5t-46.5 -36.5t-63 -14.5t-62 14.5t-45 36.5t-31 58t-19.5 68.5t-10.5 78.5t-4.5 77.5t-0.5 76.5q0 56 2 98.5t8 90t18.5 81t31 62t47 43t66.5 14.5t67 -15t48 -43t32 -62.5t19.5 -81t9 -90t2.5 -97.5z" />
    <glyph glyph-name="uniE62C" unicode="&#xe62c;" horiz-adv-x="1025" 
d="M734 297q-17 3 -22 10t-1 13l3 5q2 3 4 7.5t6.5 17.5t5 25.5t-4.5 28.5t-18 29q-32 27 -75 23t-80 -16t-37 -14q-11 -4 -18.5 -5t-11.5 0.5t-6.5 3.5t-2 8t1 10t3 14t3.5 16q0 17 -2.5 31.5t-12 30.5t-25.5 24.5t-45.5 8t-69.5 -14.5q-38 -13 -79 -40t-71.5 -56t-55 -56
t-37.5 -45l-14 -17q-23 -31 -39 -62.5t-22 -54.5t-8.5 -41.5t-2.5 -28.5v-9q6 -54 33 -97t63.5 -69.5t86.5 -45.5t96 -27.5t97 -12.5q85 -7 174.5 13t167.5 69t110 117q19 40 19 75t-12 57.5t-32 39.5t-37.5 24.5t-31.5 10.5zM388 -56q-121 -6 -207 47.5t-86 135.5
q0 81 85.5 139t207.5 64q125 6 209.5 -41t84.5 -127q0 -82 -86.5 -147t-207.5 -71zM794 677q-57 14 -133 -1q-1 0 -3 -1l-1 -1l-1 -1q-12 -3 -20 -13.5t-8 -23.5q0 -16 11 -27.5t28 -11.5q21 2 35 8q6 0 19.5 1.5t37 -4t46.5 -14.5t48 -30t42 -49q30 -67 12 -129
q-8 -19 -8 -38q0 -16 11 -25.5t28 -9.5q16 0 25 6t12 27q21 63 16 114.5t-22 89.5t-48 65.5t-62 43.5t-65 24zM356 258q-46 -5 -78 -25t-43.5 -43.5t-19 -48t-4.5 -39t1 -16.5v-6q0 -3 2 -12.5t6 -18.5t13.5 -19t21.5 -17q74 -36 139.5 -22t104.5 66q15 19 20.5 47t-2 57
t-25.5 53t-53.5 37t-82.5 7zM315 43.5q-23 -2.5 -39 9t-16 30.5q0 20 15 36.5t37 18.5q26 3 42 -9.5t16 -32.5q0 -19 -16 -34.5t-39 -18zM411 125.5q-8 -5.5 -16 -5t-12 7.5q-5 7 -3 16.5t10 14.5q9 7 17 6t13 -8q4 -7 1.5 -16.5t-10.5 -15zM814 363q10 0 17.5 6.5t8.5 16.5
v3q14 126 -85 147q-32 7 -62 1q-11 0 -18.5 -7.5t-7.5 -19t7.5 -19t18.5 -7.5q36 7 56.5 0.5t28.5 -22t10 -31.5t1 -29l-2 -12q0 -11 7.5 -19t19.5 -8z" />
    <glyph glyph-name="uniE62D" unicode="&#xe62d;" 
d="M951 417l-12 -65q-6 49 -14 90.5t-13 58.5l-5 18q-4 19 -14.5 36.5t-18.5 26.5l-8 8q8 -9 12.5 -27t3.5 -32v-13q-13 29 -30 51t-28 30l-11 8q-39 39 -85 66t-83.5 38t-69.5 17t-50 6l-17 -1q-60 2 -114.5 -12t-90.5 -35.5t-63.5 -42.5t-40.5 -36l-12 -15q-11 9 -16 23
t-5 23v9q-22 -25 -33 -61.5t-11 -61.5l1 -24l-26 -53q-6 -7 -12 -29t-9 -41l-2 -18v-10l-4 -134l6 34q9 -53 25.5 -99t34 -74.5t34.5 -49.5t27 -30l10 -9q66 -57 138 -86.5t128 -32t102 4.5t71.5 16.5t24.5 10.5q62 22 111 61.5t75 79t43.5 79.5t22.5 60.5t5 23.5
q15 46 21 99t4 84zM798 454q11 -18 10.5 -55t-6.5 -75l-6 -37l-30 30q3 -51 -1 -89t-10.5 -56t-15 -29.5t-12.5 -13t-6 -2.5l13 72l-4 -13q-27 -46 -60.5 -72.5t-65.5 -32.5t-64.5 -2.5t-59.5 16.5t-48 25.5t-33 22.5l-12 10q43 -11 72.5 -8.5t45.5 11.5l15 9q18 16 34 25
t23 10h7q12 -1 15.5 5t0.5 13l-3 8q-14 17 -35 23.5t-35 4.5l-14 -3q-23 -12 -44 -17t-34.5 -3.5t-24 4t-15.5 6.5l-5 3q-27 16 -40 32.5t-12 27.5t6 20t12 13l6 4q5 2 18 -1.5t24 -8.5l11 -5q2 9 0.5 23t-4.5 27l-3 13l74 52l14 15l2 22l-3 10l-67 1q-18 -3 -30.5 6
t-17.5 20l-4 11q3 22 18.5 43.5t29.5 31.5l14 10q-30 -2 -53 -8t-35 -13.5t-19.5 -14.5t-9.5 -12l-2 -5q-37 5 -59 4t-31 -4l-8 -4l-34 37l16 -14l16 9q30 32 70.5 56t76.5 35.5t67.5 18.5t50.5 8l19 1q44 -3 80.5 -9.5t57.5 -13.5t35.5 -13.5t19.5 -10.5l5 -4q-97 13 -96 0
q32 -4 63.5 -14.5t47.5 -19.5l15 -9q-22 1 -44 -2t-33 -6l-11 -4q50 -12 88.5 -35t58.5 -48t32.5 -48.5t15.5 -38.5l4 -15q-11 25 -22 34.5t-16 7.5zM798 454z" />
    <glyph glyph-name="uniE62E" unicode="&#xe62e;" horiz-adv-x="1114" 
d="M0 -72zM1090 -72zM173 -27zM856 197q0 -23 16 -39.5t38 -16.5q23 0 39 16.5t16 39.5v216q0 23 -16 39.5t-39 16.5q-22 0 -38 -16.5t-16 -39.5v-216zM660 596q0 11 8 18.5t19 7.5t19.5 -7.5t8.5 -18.5t-8 -19t-20 -8q-11 0 -19 8t-8 19zM453 596q0 11 7.5 18.5t18.5 7.5
t19 -7.5t8 -18.5t-8 -19t-19 -8t-18.5 8t-7.5 19zM340 72q0 -18 12.5 -30.5t30.5 -12.5h48v-120q0 -23 16 -39.5t39 -16.5q22 0 38.5 16.5t16.5 39.5v120h84v-120q0 -23 16 -39.5t38 -16.5q23 0 39 16.5t16 39.5v120h48q18 0 30.5 12.5t12.5 30.5v395h-485v-395zM824 502
q-5 55 -39 100t-88 70l44 65q6 8 -1 11q-6 3 -11 -3l-47 -67q-51 19 -100 19q-51 0 -101 -19l-46 67q-6 7 -11 3q-7 -4 -2 -11l45 -65q-55 -26 -89 -70.5t-39 -99.5h485zM198 197q0 -23 16 -39.5t39 -16.5q22 0 38.5 16.5t16.5 39.5v216q0 23 -16.5 39.5t-38.5 16.5
q-23 0 -39 -16.5t-16 -39.5v-216zM990 -27z" />
    <glyph glyph-name="uniE62F" unicode="&#xe62f;" 
d="M858 582v2q-1 5 -2 9q-1 1 -2 3h-1q0 1 -1 2v2h-1l-1 1h-1l-159 157q-8 8 -18 9h-2h-1h-480q-12 0 -20.5 -8.5t-8.5 -20.5v-874q0 -12 8.5 -20.5t20.5 -8.5h640q12 0 20.5 8.5t8.5 20.5v717v1zM698 668l60 -58h-60v58zM800 -107h-582v816h422v-128q0 -12 8.5 -21t20.5 -9
h131v-658zM718 296h-403q-13 0 -21.5 -8.5t-8.5 -20.5t8.5 -20.5t21.5 -8.5h403q12 0 20.5 8.5t8.5 20.5t-8.5 20.5t-20.5 8.5zM285 389q0 -12 8.5 -20.5t21.5 -8.5h403q12 0 20.5 8.5t8.5 20.5t-8.5 20.5t-20.5 8.5h-403q-13 0 -21.5 -8.5t-8.5 -20.5zM718 174h-403
q-13 0 -21.5 -8.5t-8.5 -20.5t8.5 -21t21.5 -9h403q12 0 20.5 9t8.5 21t-8.5 20.5t-20.5 8.5zM718 51h-403q-13 0 -21.5 -8.5t-8.5 -20.5t8.5 -20.5t21.5 -8.5h403q12 0 20.5 8.5t8.5 20.5t-8.5 20.5t-20.5 8.5z" />
    <glyph glyph-name="uniE630" unicode="&#xe630;" 
d="M119 606v-639h787v639h-787zM857 17h-689v540h689v-540zM660 434.5q0 -30.5 21.5 -52t52 -21.5t52 21.5t21.5 52t-21.5 52t-52 21.5t-52 -21.5t-21.5 -52zM807 66h-589l147 393l197 -246l98 74z" />
    <glyph glyph-name="uniE631" unicode="&#xe631;" 
d="M928 684h-832q-40 0 -68 -28t-28 -68v-576q0 -40 28 -68t68 -28h832q40 0 68 28t28 68v576q0 40 -28 68t-68 28zM960 12q0 -13 -9.5 -22.5t-22.5 -9.5h-832q-13 0 -22.5 9.5t-9.5 22.5v288h896v-288zM960 492h-896v96q0 13 9.5 22.5t22.5 9.5h832q13 0 22.5 -9.5
t9.5 -22.5v-96zM128 172h64v-128h-64v128zM256 172h64v-128h-64v128zM384 172h64v-128h-64v128z" />
    <glyph glyph-name="uniE632" unicode="&#xe632;" 
d="M750 168v1v0v-1zM725 181v0v0zM388 446h139v-39h-139v39zM388 288h353v-39h-353v39zM388 130h107v-39h-107v39zM727 212l-121 -121l-47 48l-24 -24l72 -72l24 24h-1l121 121zM281 455h56v-57h-56v57zM281 297h56v-57h-56v57zM281 139h56v-57h-56v57zM602 431h1v0
q5 -4 12 -4h225q7 0 12.5 5t5.5 13t-6 13l-224 224q-6 6 -13 6q-8 0 -13 -4.5t-6 -11.5v-2v-225q0 -8 6 -14zM642 604l132 -132h-132v132zM835.5 359q-9.5 0 -16 -6.5t-6.5 -15.5v-391q0 -8 -2.5 -11t-11.5 -3h-574q-9 0 -11.5 3t-2.5 11v683q0 9 2.5 12t11.5 3h288h1
q9 0 15.5 6.5t6.5 15.5t-6.5 15.5t-15.5 6.5h-1h-325q-9 0 -15.5 -6.5t-6.5 -15.5v-756q0 -9 6.5 -15.5t15.5 -6.5h648q9 0 15.5 6.5t6.5 15.5v426q0 10 -6.5 16.5t-16 6.5z" />
    <glyph glyph-name="uniE633" unicode="&#xe633;" 
d="M750 168v1v0v-1zM725 181v0v0zM602 431h1v0q5 -4 12 -4h225q7 0 12.5 5t5.5 13t-6 13l-224 224q-6 6 -13 6q-8 0 -13 -4.5t-6 -11.5v-2v-225q0 -8 6 -14zM642 604l132 -132h-132v132zM835.5 359q-9.5 0 -16 -6.5t-6.5 -15.5v-391q0 -8 -2.5 -11t-11.5 -3h-574
q-9 0 -11.5 3t-2.5 11v683q0 9 2.5 12t11.5 3h288h1q9 0 15.5 6.5t6.5 15.5t-6.5 15.5t-15.5 6.5h-1h-325q-9 0 -15.5 -6.5t-6.5 -15.5v-756q0 -9 6.5 -15.5t15.5 -6.5h648q9 0 15.5 6.5t6.5 15.5v426q0 10 -6.5 16.5t-16 6.5zM483 252q-2 2 -4 2t-3 -1q-1 0 -1 -1
q-2 -1 -1 -4v-101q-1 -3 2 -5q4 -2 6 0l67 52q2 1 2 3.5t-2 3.5zM489 169v57l37 -29zM340 55h333v313h-333v-313zM612 344h43v-43h-43v43zM612 270h43v-43h-43v43zM612 196h43v-43h-43v43zM612 122h43v-43h-43v43zM423 348h166v-273h-166v273zM360 344h43v-43h-43v43z
M360 270h43v-43h-43v43zM360 196h43v-43h-43v43zM360 122h43v-43h-43v43z" />
    <glyph glyph-name="uniE634" unicode="&#xe634;" 
d="M892 240q-4 -24 -23.5 -41t-43.5 -17h-395q-24 0 -43 17t-23 41l-44 317q-3 24 11.5 38t37.5 10l507 -90q23 -4 37.5 -24t10.5 -44zM810 148h-481l-63 475q-2 10 -9.5 17.5t-16.5 7.5h-5h-115q-12 0 -20.5 -7.5t-8.5 -18t8.5 -18.5t20.5 -8h97l64 -475q1 -11 9 -18.5
t18 -6.5h2h500q12 0 20.5 7.5t8.5 18.5t-8.5 18.5t-20.5 7.5zM473 6q0 -24 -17 -40.5t-41 -16.5t-41 16.5t-17 40.5t17 40.5t41 16.5t41 -16.5t17 -40.5zM785 6q0 -24 -17 -40.5t-41 -16.5t-40.5 16.5t-16.5 40.5t16.5 40.5t40.5 16.5t41 -16.5t17 -40.5z" />
    <glyph glyph-name="uniE635" unicode="&#xe635;" 
d="M270 708q22 0 46.5 -23t42 -56t31 -68.5t13 -60.5t-11.5 -33q-7 -3 -24 -9t-27 -11t-22.5 -14.5t-18.5 -25t-5 -36.5q0 -23 63 -101t134.5 -146t92.5 -66q26 1 43 17t24 35t20.5 39.5t33.5 28.5q23 9 72 -14t88 -62t34 -69q-10 -50 -60.5 -91t-133.5 -53q-38 -6 -95.5 12
t-122 54t-129 93t-116.5 123t-84.5 150.5t-32.5 169.5q1 63 13 107t32.5 67.5t44.5 33t55 9.5z" />
    <glyph glyph-name="uniE636" unicode="&#xe636;" horiz-adv-x="1025" 
d="M258 365l-146 254q72 90 176.5 141.5t223.5 51.5q138 0 255 -68t186 -183h-418q-12 1 -23 1q-90 0 -161 -55.5t-93 -141.5zM695 487h294q35 -90 35 -187q0 -103 -40 -197.5t-107.5 -163t-161.5 -109.5t-197 -42l209 363q47 67 47 149q0 110 -79 187zM326 300
q0 77 54.5 131.5t131.5 54.5t131.5 -54.5t54.5 -131.5t-54.5 -131.5t-131.5 -54.5t-131.5 54.5t-54.5 131.5zM582 48l-146 -254q-122 18 -222 89t-157 181t-57 236q0 134 66 251l209 -362q32 -68 96 -109.5t141 -41.5q36 0 70 10z" />
    <glyph glyph-name="uniE637" unicode="&#xe637;" 
d="M248 501q6 -21 13 -46.5t16 -52t20 -52.5t24 -48v-371l-235 -58v588zM318 533v9v9q0 43 16 79.5t44.5 64.5t66 44t81 16t81 -16t66 -44t45 -64.5t16.5 -79.5v-11q0 -6 -1 -11q-6 -50 -22.5 -95.5t-42 -88t-58.5 -81.5t-70 -75q-7 -7 -14.5 -7t-14.5 7q-38 36 -71 75.5
t-58.5 82.5t-42 90t-21.5 96zM526 638q-19 0 -35 -6.5t-28 -18.5t-19 -28t-7 -34t7 -34t19 -27.5t28 -18t34.5 -6.5t35 6.5t28.5 18t19 27.5t7 34t-7 34t-19 28t-28.5 18.5t-34.5 6.5zM380 226q27 -30 53 -55q26 -24 46 -43q25 -22 47 -39q11 10 25 22q12 10 28 26t37 36
v-300l-236 58v295zM910 520v-589l-236 -58v360q6 6 11 12t11 12q19 20 35 49t28.5 61.5t22.5 65t17 60.5zM910 520z" />
    <glyph glyph-name="uniE638" unicode="&#xe638;" 
d="M512 812q-159 0 -271.5 -112.5t-112.5 -271.5q0 -59 41.5 -149t92 -166.5t116.5 -161.5t92.5 -115.5t41.5 -47.5q16 17 41.5 47.5t92 115.5t117 161.5t92 166.5t41.5 149q0 159 -112.5 271.5t-271.5 112.5zM512 268q-80 0 -136 56t-56 136t56 136t136 56t136 -56t56 -136
t-56 -136t-136 -56z" />
    <glyph glyph-name="uniE639" unicode="&#xe639;" 
d="M153 -40q-15 0 -20 14q-7 15 6 26q50 38 50 78q1 22 -12 32q-54 44 -82.5 99.5t-28.5 115.5q0 88 59.5 163t162.5 118.5t224 43.5t224 -43.5t162.5 -118.5t59.5 -163t-59.5 -163t-162.5 -118.5t-224 -43.5q-88 0 -170 24q-1 0 -21 -11q-80 -43 -166 -52q-1 -1 -2 -1z
M512 606q-109 0 -202 -37.5t-147 -102.5t-54 -141q0 -103 96 -182q29 -23 28 -65q0 -32 -19 -62q40 10 86 36q30 16 44 16q6 0 11 -2q75 -22 157 -22q109 0 201.5 37.5t146.5 102.5t54 141t-54 141t-146.5 102.5t-201.5 37.5zM302 327zM261 327q0 17 12 29.5t29 12.5
t29.5 -12.5t12.5 -29.5t-12.5 -29t-29.5 -12t-29 12t-12 29zM512 327zM470 327q0 17 12.5 29.5t29.5 12.5t29 -12.5t12 -29.5t-12 -29t-29 -12t-29.5 12t-12.5 29zM698 327zM657 327q0 17 12 29.5t29 12.5t29.5 -12.5t12.5 -29.5t-12.5 -29t-29.5 -12t-29 12t-12 29z" />
    <glyph glyph-name="uniE63A" unicode="&#xe63a;" 
d="M786 809h-535q-19 0 -32 -13.5t-13 -32.5v-55v-22v-715v-51v-83q0 -19 13 -32.5t32 -13.5h78h168h44h167h78q19 0 32.5 13.5t13.5 32.5v107v27v715v45v32q0 19 -13.5 32.5t-32.5 13.5zM580 754q6 6 15 6t15 -6q6 -7 6 -15q0 -9 -6 -15q-6 -7 -15 -7t-15 6q-6 7 -6 15.5
t6 15.5zM457 760h59q8 0 14.5 -6.5t6.5 -15t-6.5 -15t-14.5 -6.5h-59q-9 0 -15.5 6.5t-6.5 15t6.5 15t15.5 6.5zM518.5 -166q-20.5 0 -34.5 14.5t-14 35t14 35t34.5 14.5t35 -14.5t14.5 -35t-14.5 -35t-35 -14.5zM787 -29h-536v698h536v-698z" />
    <glyph glyph-name="uniE63B" unicode="&#xe63b;" 
d="M469 779zM436 779.5q0 13.5 9.5 23t23 9.5t23 -9.5t9.5 -23t-9.5 -23t-23 -9.5t-23 9.5t-9.5 23zM556 779zM523 779.5q0 13.5 9.5 23t23 9.5t23 -9.5t9.5 -23t-9.5 -23t-23 -9.5t-23 9.5t-9.5 23zM707 23q44 13 71.5 50.5t27.5 84.5v436q0 59 -41.5 100.5t-99.5 41.5
h-305q-59 0 -100.5 -41.5t-41.5 -100.5v-436q0 -47 28 -84.5t71 -50.5l-143 -236h98l98 164h284l98 -164h98zM664.5 82q-22.5 0 -38.5 16t-16 38.5t16 38.5t38.5 16t38.5 -16t16 -38.5t-16 -38.5t-38.5 -16zM425 692q0 9 6.5 15.5t15.5 6.5h131q9 0 15 -6.5t6 -15.5v-44
q0 -9 -6 -15t-15 -6h-131q-9 0 -15.5 6t-6.5 15v44zM294 539q0 28 19 47t47 19h305q27 0 46 -19t19 -47v-87q0 -27 -19 -46t-46 -19h-305q-28 0 -47 19t-19 46v87zM359.5 191q22.5 0 38.5 -16t16 -38.5t-16 -38.5t-38.5 -16t-38.5 16t-16 38.5t16 38.5t38.5 16z" />
    <glyph glyph-name="uniE63C" unicode="&#xe63c;" 
d="M358 672q74 30 154.5 30t154.5 -30q76 -31 135 -89l58 58l55 -205l-205 55l63 63q-52 52 -119.5 80t-140.5 28q-74 0 -141.5 -28t-120 -80.5t-80.5 -120t-28 -141.5t28 -141.5t80.5 -120t120 -80.5t141.5 -28t141.5 28t119.5 80l29 -28q-59 -60 -136 -91
q-74 -30 -154.5 -30t-154.5 30q-77 31 -136 90.5t-90 135.5q-30 75 -30 155t30 154q31 77 90 136t136 90z" />
    <glyph glyph-name="uniE63D" unicode="&#xe63d;" 
d="M512 807v-507h507v26q0 16 -8 63.5t-23.5 92t-52.5 100.5t-89 99t-138.5 78.5t-195.5 47.5zM464 774v-521h507q0 -6 -1 -16.5t-6.5 -41.5t-14.5 -61.5t-27.5 -72t-43 -77t-62.5 -72t-84 -62t-111.5 -41.5t-140.5 -16h-16q-11 0 -43.5 4t-64 11t-74.5 23t-79.5 37.5
t-74.5 57t-64 80t-43 108t-17 138.5v1q3 2 0 18t2 44.5t9 63.5t20.5 76t36.5 81t57 79t81.5 71t110 55.5t143.5 32.5z" />
    <glyph glyph-name="uniE63E" unicode="&#xe63e;" 
d="M915 396h-79q-1 3 -12 31t-19 42l55 54q14 13 14 31.5t-13 31.5l-64 63q-13 13 -31.5 13t-32.5 -13l-52 -56q-14 8 -42 19t-31 12v79q0 18 -16 31.5t-35 13.5h-90q-19 0 -35 -13.5t-16 -31.5v-79q-3 -1 -31 -12t-42 -19l-54 56q-13 13 -31.5 13t-31.5 -13l-63 -64
q-13 -13 -13 -31.5t13 -31.5l56 -53q-8 -14 -19 -42t-12 -31h-79q-18 0 -31.5 -16t-13.5 -35v-90q0 -19 13.5 -35t31.5 -16h79q1 -3 12 -31t19 -42l-56 -54q-13 -13 -13 -31.5t13 -31.5l64 -63q13 -13 31.5 -13t31.5 13l53 56q14 -8 42 -19t31 -12v-79q0 -18 16 -31.5
t35 -13.5h90q19 0 35 13.5t16 31.5v79q3 1 31 12t42 19l54 -55q13 -14 31.5 -14t31.5 13l63 64q13 13 13 31.5t-13 32.5l-56 52q8 14 19 42t12 31h79q18 0 31.5 16t13.5 35v90q0 19 -13.5 35t-31.5 16zM512 98q-84 0 -143 59t-59 143t59 143t143 59t143 -59t59 -143
t-59 -143t-143 -59z" />
    <glyph glyph-name="uniE63F" unicode="&#xe63f;" 
d="M918 -50h-811q-18 0 -30 12t-12 30v671q0 17 12 29.5t29.5 12.5t30 -12.5t12.5 -29.5v-532v-97h769q17 0 29.5 -12.5t12.5 -30t-12.5 -29.5t-29.5 -12zM820 75h-84q-17 0 -29.5 12.5t-12.5 29.5v294q0 18 12.5 30t29.5 12h84q17 0 29.5 -12t12.5 -30v-294
q0 -17 -12.5 -29.5t-29.5 -12.5zM582 75h-84q-17 0 -29.5 12.5t-12.5 29.5v462q0 18 12.5 30t29.5 12h84q18 0 30 -12t12 -30v-462q0 -17 -12 -29.5t-30 -12.5zM344 75h-84q-17 0 -29.5 12.5t-12.5 29.5v84q0 18 12.5 30t29.5 12h84q18 0 30 -12t12 -30v-84q0 -17 -12 -29.5
t-30 -12.5z" />
    <glyph glyph-name="uniE640" unicode="&#xe640;" 
d="M672 -156l-156 413l-166 -145l-11 -121l-65 -57l-56 145l-129 79l69 60l109 -10l168 146l-371 225l87 75l463 -146l243 211q19 17 44.5 15t42 -22t14 -46t-21.5 -43l-245 -213l66 -492z" />
    <glyph glyph-name="uniE641" unicode="&#xe641;" 
d="M788 361h-55v157q0 72 -51.5 123.5t-124.5 51.5h-107q-73 0 -124.5 -51.5t-51.5 -123.5v-157h-55q-29 0 -49.5 -20.5t-20.5 -48.5v-361q0 -29 20.5 -49.5t49.5 -20.5h569q29 0 49 20.5t20 49.5v361q0 28 -20 48.5t-49 20.5zM354 518q0 39 28 67t68 28h107q40 0 68 -28
t28 -67v-157h-299v157z" />
    <glyph glyph-name="uniE642" unicode="&#xe642;" 
d="M512 684q159 0 271.5 -112.5t112.5 -271.5t-112.5 -271.5t-271.5 -112.5t-271.5 112.5t-112.5 271.5t112.5 271.5t271.5 112.5zM512 812q-139 0 -257 -68.5t-186.5 -186.5t-68.5 -257t68.5 -257t186.5 -186.5t257 -68.5t257 68.5t186.5 186.5t68.5 257t-68.5 257
t-186.5 186.5t-257 68.5z" />
    <glyph glyph-name="uniE643" unicode="&#xe643;" 
d="M688 229h-523l-70 -155h765q-14 18 -37.5 47.5t-33 40.5t-25 28t-25.5 23t-23 11t-28 5zM179 208h524q4 0 7.5 -3.5t3.5 -8t-3.5 -8t-7.5 -3.5h-534zM159 163h593q4 0 7.5 -3.5t3.5 -8t-3.5 -8t-7.5 -3.5h-603zM789 95h-661l10 23h651q5 0 8 -3.5t3 -8t-3 -8t-8 -3.5z
M688 251h-239l9 23h188q12 0 18.5 -2.5t9.5 -5.5t14 -15zM301 326h-59l-31 -75h92zM980 52v-12q-14 -9 -32 -21t-28.5 -18.5t-23.5 -15.5t-20.5 -14.5t-16 -13t-13 -12.5t-8.5 -11t-5.5 -12t-1.5 -12h-702q-15 0 -26.5 2t-19 4.5t-12.5 9t-7.5 10.5t-4 14t-1.5 15t0.5 17.5
t0.5 17.5l25 52h896zM248 30h-55l-14 -30h69v30zM339 30h-67v-30h67v30zM429 30h-67v-30h67v30zM520 30h-67v-30h67v30zM611 30h-68v-30h68v30zM798 -32h-46q0 -9 7 -16t16.5 -7t16 7t6.5 16z" />
    <glyph glyph-name="uniE644" unicode="&#xe644;" horiz-adv-x="1123" 
d="M561.5 -58q-11.5 0 -53.5 42t-42 53q0 18 36 31t59.5 13t59 -13t35.5 -31q0 -11 -41.5 -53t-53 -42zM715 97q-1 0 -22.5 14t-58 28.5t-73.5 14.5t-73.5 -14.5t-57.5 -28.5t-23 -14q-10 0 -53.5 42.5t-43.5 53.5q0 7 6 13q45 44 112 69t133 25t133.5 -25t111.5 -69
q6 -6 6 -13q0 -11 -43 -53.5t-54 -42.5zM871 252q-6 0 -13 5q-77 60 -143.5 88t-153.5 28q-48 0 -97 -12.5t-85.5 -30t-65 -35.5t-45 -30.5t-17.5 -12.5q-10 0 -53 43t-43 53q0 7 6 13q76 75 183 116.5t217 41.5t217.5 -41.5t182.5 -116.5q6 -6 6 -13q0 -10 -43 -53t-53 -43
zM1026 407q-6 0 -12 5q-103 90 -213 135.5t-240 45.5t-240 -45.5t-212 -135.5q-7 -5 -13 -5q-10 0 -53 43t-43 53q0 7 6 13q107 106 254 164.5t301 58.5t301.5 -58.5t254.5 -164.5q5 -6 5 -13q0 -10 -43 -53t-53 -43z" />
    <glyph glyph-name="uniE645" unicode="&#xe645;" 
d="M894 77v-49q0 -24 -5 -41t-18 -27.5t-40 -10.5v-63q0 -27 -19 -45.5t-45.5 -18.5t-44.5 18.5t-18 45.5v63h-384v-63q0 -27 -18 -45.5t-44.5 -18.5t-45.5 18.5t-19 45.5v63q-26 0 -39 10.5t-18 27.5t-5.5 40t-0.5 50v574q0 26 10 49t27.5 40.5t40.5 27.5t49 10h510
q26 0 49 -10t40.5 -27.5t27.5 -40.5t10 -49v-574zM382 715q-13 0 -22 -9t-9 -23t9 -23t22 -9h260q13 0 22 9t9 23t-9 23t-22 9h-260zM287 66q19 0 33 14t14 33.5t-14 33t-33 13.5q-21 0 -34 -13.5t-13 -33t13 -33.5t34 -14zM733 68q19 0 31.5 13.5t12.5 32t-12.5 31.5
t-31.5 13t-32 -13t-13 -31.5t13 -32t32 -13.5zM831 588h-638v-255h638v255z" />
    <glyph glyph-name="uniE646" unicode="&#xe646;" 
d="M512 -212q-139 0 -257 68.5t-186.5 186.5t-68.5 257t68.5 257t186.5 186.5t257 68.5t257 -68.5t186.5 -186.5t68.5 -257t-68.5 -257t-186.5 -186.5t-257 -68.5zM768 364h-192v192h-128v-192h-192v-128h192v-192h128v192h192v128z" />
    <glyph glyph-name="uniE647" unicode="&#xe647;" horiz-adv-x="1025" 
d="M906 812h-788q-49 0 -83.5 -34.5t-34.5 -83.5v-788q0 -49 34.5 -83.5t83.5 -34.5h788q49 0 83.5 34.5t34.5 83.5v788q0 49 -34.5 83.5t-83.5 34.5zM777 391l-315 -319h-1v-1q-2 -2 -9 -5q0 -1 -1.5 -2t-2.5 -1q-7 -3 -14.5 -3t-14.5 3q-1 0 -2.5 1.5t-2.5 1.5q-6 4 -8 5
v1h-1l-155 159q-11 12 -11 28.5t12 27.5t28 11t28 -12l127 -130l287 290q11 12 27.5 12t28 -11.5t11.5 -28t-11 -27.5zM777 391z" />
    <glyph glyph-name="uniE648" unicode="&#xe648;" horiz-adv-x="1026" 
d="M904 812h-786q-49 0 -83.5 -35t-34.5 -83v-787q0 -49 34.5 -83.5t83.5 -34.5h786q49 0 83.5 34.5t34.5 83.5v787q0 48 -34.5 83t-83.5 35z" />
    <glyph glyph-name="uniE649" unicode="&#xe649;" 
d="M512 800q-139 0 -257 -68.5t-186.5 -186.5t-68.5 -257t68.5 -257t186.5 -186.5t257 -68.5t257 68.5t186.5 186.5t68.5 257t-68.5 257t-186.5 186.5t-257 68.5zM512 -96q-159 0 -271.5 112.5t-112.5 271.5t112.5 271.5t271.5 112.5t271.5 -112.5t112.5 -271.5
t-112.5 -271.5t-271.5 -112.5zM320 288q0 80 56 136t136 56t136 -56t56 -136t-56 -136t-136 -56t-136 56t-56 136z" />
    <glyph glyph-name="uniE64A" unicode="&#xe64a;" 
d="M92 -148h840q12 0 20 8t8 20t-8 20t-20 8h-812v812q0 12 -8 20t-20 8t-20 -8t-8 -20v-840q0 -12 8 -20t20 -8zM228 71q25 0 42.5 20t17.5 48q0 13 -5 25l118 154q9 -3 18 -3q26 0 44 22l111 -63q0 -28 17.5 -47.5t42 -19.5t42 19.5t17.5 47.5v4l155 151q12 -5 24 -5
q25 0 42.5 19.5t17.5 47.5t-17.5 48t-42.5 20t-42 -20t-17 -48q0 -11 3 -22l-145 -142q-17 15 -37 15q-25 0 -42 -19l-114 65q-1 26 -18.5 44.5t-40.5 18.5q-25 0 -42.5 -20t-17.5 -48q0 -15 6 -29l-116 -152q-10 5 -21 5q-25 0 -42.5 -20t-17.5 -48t17.5 -48t42.5 -20z" />
    <glyph glyph-name="uniE64B" unicode="&#xe64b;" 
d="M305 260zM730 427zM596 554zM144 603v-602h737v602h-737zM420 216v129h185v-129h-185zM605 173v-129h-185v129h185zM605 517v-129h-185v129h185zM374 517v-129h-184v129h184zM190 345h184v-129h-184v129zM651 345h184v-129h-184v129zM651 388v129h184v-129h-184zM190 173
h184v-129h-184v129zM651 44v129h184v-129h-184z" />
    <glyph glyph-name="uniE64C" unicode="&#xe64c;" 
d="M310 699q21 -13 28 -24q10 -6 24 -27q1 -3 6 -10t7 -10q7 -7 14 -21q2 -3 7 -11.5t7 -12.5h228q1 2 6.5 10t7.5 14q7 14 13.5 21t10.5 13q13 21 20 28q6 8 31 27q14 7 17 14q7 13 7 17q0 10 -4 17q-4 9 -13 13q-7 4 -17 4q-2 0 -7 -2t-7 -2q-7 0 -14 -6q-3 -4 -16.5 -4
t-17.5 4q-1 1 -6.5 4.5t-6.5 5.5q-7 7 -14 10q-3 3 -17 10q-21 11 -34 4q-4 -1 -28 -17q-13 -14 -17 -14q-1 0 -3 -1.5t-3 -1.5l-14 6q-2 2 -5.5 4t-4.5 3l-11 10q-3 4 -23 11q-14 4 -31 -7q-14 -7 -27 -21q-11 -10 -24 -10h-21q-2 2 -8 4l-9 3q-7 3 -20.5 3t-16.5 -3
q-16 -10 -11 -31q4 -10 17 -24zM901 181q-12 64 -27 95q-18 36 -48 72q-8 9 -17.5 18.5t-20.5 20t-17 15.5q-41 35 -54 52l-15 14l-15 16l-11 11q-8 7 -19 19.5t-16 17.5h-245q-3 -6 -8.5 -13t-12.5 -15t-10 -13q-10 -14 -38 -41q-6 -6 -24 -22.5t-27 -25.5
q-41 -41 -61.5 -64.5t-47.5 -78.5q-18 -37 -24 -92q-6 -57 4 -103q13 -58 37 -95q29 -52 75 -89q52 -41 113 -65q62 -24 153 -24q84 0 151 21q63 19 112 58q53 41 75 85q25 37 38 103q6 86 0 123zM624 44q31 0 31 -24q0 -14 -7 -17q-3 -3 -17 -3h-75v-21q0 -7 -7 -20
q-11 -12 -20 -7q-14 0 -21 7q-10 5 -10 20v21h-78q-11 0 -17.5 6.5t-6.5 13.5q0 4 7 17q6 7 17 7h75v38h-75q-11 0 -17.5 6.5t-6.5 13.5q0 3 7 17q6 7 17 7h75v24l-38 37q-3 4 -8.5 10t-10 10.5t-8.5 7.5l-14 17q-3 3 -10 17q-4 8 3 24q11 11 24 7q16 -6 24 -14q1 -1 5.5 -7
t8.5 -10l24 -24l30 -31q14 10 35 31q5 3 13.5 11.5t13.5 12.5q4 3 7.5 6.5t6 6.5t3.5 4q10 10 20.5 10t20.5 -10q16 -16 -10 -38l-21 -20l-27 -27l-34 -35v-17h71q11 0 24 -6q7 -4 7 -18q0 -10 -7 -16.5t-20 -6.5h-72v-38h68z" />
    <glyph glyph-name="uniE64D" unicode="&#xe64d;" 
d="M510 -41q-8 4 -21 12t-51.5 34.5t-74 54.5t-78 72t-73.5 88.5t-52 101t-21 112.5q0 77 64 133.5t144 56.5q57 0 100.5 -32.5t62.5 -86.5h1q18 54 61.5 86.5t101.5 32.5q79 0 143.5 -56.5t64.5 -133.5q0 -56 -20.5 -112.5t-53 -101.5t-73 -87.5t-79 -73t-72.5 -54t-53 -35
t-21 -11.5zM512 -99q-9 5 -25 14.5t-62.5 41t-88.5 65.5t-93.5 86.5t-88.5 106t-62.5 121.5t-25.5 135q0 61 36.5 114.5t94 83.5t118.5 30q69 0 121.5 -39t75.5 -103v0q23 64 75.5 103t121.5 39q61 0 118.5 -30t94 -83.5t36.5 -114.5q0 -219 -251 -433q-101 -86 -195 -137z
" />
    <glyph glyph-name="uniE64E" unicode="&#xe64e;" 
d="M215 170q41 47 90.5 82.5t95.5 54.5t92.5 31t85 15t68.5 3t47 -2l16 -2v-184l310 279l-310 278v-185q-95 1 -173.5 -19.5t-128.5 -51.5t-88 -73.5t-57 -78t-31 -74t-14 -52t-3 -21.5zM110 602h331v103h-435v-103h76l-76 -1v-620h104v621zM834 -19h-828v-103h828h103v290
h-103v-187z" />
    <glyph glyph-name="uniE64F" unicode="&#xe64f;" 
d="M705 748q-57 0 -108 -27.5t-87 -75.5q-35 48 -86.5 75.5t-108.5 27.5q-104 0 -178 -81t-74 -194q0 -42 13 -84t25.5 -64t34.5 -57q27 -41 72 -91.5t85.5 -89t87.5 -79t66 -55.5t31 -25q14 -11 32 -11t32 11q12 10 31 25t66 55t87.5 79t85.5 89.5t72 91.5q22 35 34.5 57
t25.5 64t13 84q0 113 -74 194t-178 81zM838 303q-25 -39 -68 -87t-86.5 -88.5t-83.5 -75t-65 -54.5l-25 -20q-10 8 -26.5 21t-62.5 52.5t-85.5 77t-84 86.5t-69.5 88q-21 33 -32 53.5t-21 52.5t-10 64q0 88 57.5 150.5t138.5 62.5q59 0 107 -35t71 -92v1q4 -14 17 -14t17 14
q23 56 71.5 91t106.5 35q81 0 138.5 -62.5t57.5 -150.5q0 -46 -16 -83.5t-47 -86.5zM838 303z" />
    <glyph glyph-name="uniE650" unicode="&#xe650;" 
d="M1005 300q0 -29 -22.5 -67.5t-67.5 -78.5t-103.5 -74t-137.5 -56t-162 -22q-81 0 -159.5 21.5t-137 55.5t-104 74t-69 78.5t-23.5 68.5t23.5 68.5t69 78.5t104.5 74t137 55t159 21q84 0 163 -21t137.5 -55t103 -74t67.5 -78.5t22 -68.5zM512.5 543q-98.5 0 -168 -71
t-69.5 -172t69.5 -172t168 -71t168 71t69.5 172t-69.5 172t-168 71zM512 455q-63 0 -107 -45.5t-44 -109.5t44 -109.5t107 -45.5t107 45.5t44 109.5t-44 109.5t-107 45.5z" />
    <glyph glyph-name="uniE651" unicode="&#xe651;" 
d="M152 676h305q9 0 14.5 -6t7.5 -18.5t2.5 -20.5t0 -25.5t-0.5 -22.5v-169q0 -6 0.5 -21.5t0 -24t-1.5 -19.5t-5.5 -17.5t-11.5 -9.5t-21 -3.5t-33.5 0.5t-23.5 1h-162q-6 0 -23 -0.5t-25.5 -0.5t-20.5 2t-18 7.5t-7 15.5v309q6 18 23 23zM194 607v-220h220v223h-219
q-1 0 -1 -3zM562 676h305q20 -7 23 -27v-301q-5 -22 -21 -27q-9 -2 -22 -2.5t-30.5 0.5t-24.5 1h-157q-7 0 -24.5 -1t-31 -1t-21.5 3t-12.5 9.5t-6.5 19t-2 21.5t0.5 25.5t0.5 22.5v158q0 8 -0.5 25.5t-0.5 27t2 21.5t7.5 18t15.5 7zM604 607v-220h220v223h-219q-2 0 -1 -3z
M294 542q23 5 39 -8t17 -35q0 -27 -22 -40t-45 -2q-16 9 -21.5 28t3.5 36.5t29 20.5zM704 542q39 8 51 -26q10 -30 -10 -51q-16 -16 -41 -12q-22 4 -30.5 24t0 40.5t30.5 24.5zM455 -96h-302q-19 6 -24 25v308q6 19 20 23q9 2 22 2.5t30.5 -0.5t24.5 -1h156q7 0 24.5 1
t31 0.5t22.5 -2.5q8 -3 13 -9.5t6.5 -18.5t2 -21t0 -25.5t-0.5 -23.5v-162q0 -6 0.5 -24.5t0 -26.5t-2.5 -20t-8 -18t-16 -7zM194 191v-220h220v223h-219q-1 0 -1 -3zM890 233v-86q-1 -7 -0.5 -46t-0.5 -47h-218v50q-5 2 -33 1.5t-34 -0.5q-2 -17 -1.5 -99.5t0.5 -101.5h-40
q-10 2 -16 8.5t-8 18.5t-2 21.5t0.5 27t0.5 24.5v158q0 7 -1 25.5t-0.5 32t2.5 21.5q2 5 4.5 8.5t7 5.5t8 3.5t11 2t11.5 0.5h13h13h148v-136h69q0 12 -0.5 68.5t1.5 67.5q17 0 31 -0.5t23.5 -7t10.5 -20.5zM300 128q25 2 40.5 -17.5t6.5 -45.5q-9 -23 -33.5 -27t-42.5 12.5
t-10.5 45t39.5 32.5zM745 -96h-74v41q0 33 1 39h73v-80zM890 -16v-52q-4 -21 -24 -28h-52q0 8 -0.5 41t1.5 39h75z" />
    <glyph glyph-name="uniE652" unicode="&#xe652;" 
d="M611 124h-198v109q-21 1 -43.5 3.5t-39.5 4.5t-43 7t-38.5 7t-44.5 9.5t-42.5 10t-50.5 12t-52 12.5v-310q0 -20 12.5 -34t35.5 -14h805q25 0 39 13.5t14 36.5v308l-68 -16q-51 -12 -66.5 -15.5t-53.5 -11.5t-58 -11t-50 -6.5t-58 -5.5v-109zM926 525h-237v37
q0 17 -0.5 26.5t-4 22t-12 18.5t-22.5 6h-276q-14 0 -22.5 -6t-12 -18.5t-4 -22t-0.5 -26.5v-37h-237q-39 0 -39 -36v-146q274 -65 449 -65t457 65v146q0 16 -10 26t-29 10zM611 525h-198v37q0 35 38 35h122q38 0 38 -35v-37zM453 233h118v-73h-118v73z" />
    <glyph glyph-name="uniE653" unicode="&#xe653;" 
d="M120 685h783v-99h-783v99zM120 537l-50 -250v-84h884v83l-51 251h-783zM120 203h82v-301h-82v301zM821 203h82v-301h-82v301zM521 203h83v-219h-83v219zM202 -16h619v-82h-619v82z" />
    <glyph glyph-name="uniE654" unicode="&#xe654;" 
d="M1024 222l-512 397l-512 -397v162l512 397l512 -397v-162zM896 236v-384h-256v256h-256v-256h-256v384l384 288z" />
    <glyph glyph-name="uniE655" unicode="&#xe655;" 
d="M905 543h-217v8q0 34 -24 58t-58 24h-190q-34 0 -58 -24t-24 -58v-8h-217q-22 0 -37 -15t-15 -36v-501q0 -21 15 -36t37 -15h788q21 0 36 15t15 36v501q0 21 -15 36t-36 15zM510.5 3q-98.5 0 -168 70t-69.5 168.5t69.5 168t168 69.5t168.5 -69.5t70 -168t-70 -168.5
t-168.5 -70zM351 241q0 -66 46.5 -113t113 -47t113.5 47t47 113q0 67 -47 114t-113.5 47t-113 -47t-46.5 -114z" />
    <glyph glyph-name="uniE656" unicode="&#xe656;" 
d="M512 722q-89 0 -169.5 -34.5t-138.5 -92.5t-92.5 -138.5t-34.5 -169t34.5 -169.5t92.5 -139t138.5 -92.5t169.5 -34.5t169.5 34.5t138.5 92.5t92.5 139t34.5 169.5t-34.5 169t-92.5 138.5t-138.5 92.5t-169.5 34.5zM513 531q23 0 39 -16t16 -39t-16 -39t-39 -16t-39 16
t-16 39t16 39t39 16zM561 51h-39q-15 0 -28 11t-13 23v222h-14q-15 0 -25.5 10.5t-10.5 26t10.5 26t25.5 10.5h46q32 -2 32 -25v-231h16q15 0 25.5 -10.5t10.5 -25.5t-10.5 -26t-25.5 -11zM561 51z" />
    <glyph glyph-name="uniE657" unicode="&#xe657;" 
d="M512 812q-139 0 -257 -68.5t-186.5 -186.5t-68.5 -257t68.5 -257t186.5 -186.5t257 -68.5t257 68.5t186.5 186.5t68.5 257t-68.5 257t-186.5 186.5t-257 68.5zM704 236h-384q-26 0 -45 19t-19 45q0 27 18.5 45.5t45.5 18.5h384q27 0 45.5 -18.5t18.5 -45.5t-18.5 -45.5
t-45.5 -18.5z" />
    <glyph glyph-name="uniE658" unicode="&#xe658;" 
d="M510 612l68 -219l16 -40h235l-192 -146l14 -42l55 -193l-160 121l-35 23l-35 -22l-162 -126l57 195l14 43l-194 147h235l16 40zM510 800l-127 -383h-382l309 -235l-119 -405l319 263l318 -263l-118 405l310 235h-382z" />
    <glyph glyph-name="uniE659" unicode="&#xe659;" 
d="M1011 415h-367l-134 383l-133 -383h-367l300 -234l-133 -400l333 250l334 -250l-133 400z" />
    <glyph glyph-name="uniE65A" unicode="&#xe65a;" 
d="M848 317l-44 -42q-20 -20 -25 -35t-5 -46v-99q0 -30 -20.5 -51.5t-48.5 -21.5h-471q-28 0 -48.5 21.5t-20.5 51.5v322q0 30 20.5 51.5t48.5 21.5h314q36 0 52 3t24 11l46 52l2 2t4.5 5.5t2.5 5.5q-1 6 -11 7t-46 1h-490q-29 0 -49.5 -21.5t-20.5 -51.5v-482
q0 -30 20.5 -51.5t49.5 -21.5h667q29 0 49.5 21.5t20.5 51.5v236q0 47 -3 55q-2 5 -7 6.5t-11 -2.5zM922 474q19 23 28 41t12 29.5t-3.5 25t-12.5 20.5t-21 24q-13 13 -19 18t-18.5 11.5t-24 4.5t-30 -11t-40.5 -27zM754 575q-9 -9 -20 -21q-1 0 -8 -7.5t-18.5 -20
t-27 -28.5t-32 -33.5t-33.5 -35.5t-32 -33.5t-27 -28t-19 -19.5l-6 -7q-22 -22 -47 -107t-13 -97q12 -13 92.5 12t100.5 50q202 212 204 214q11 11 20 21z" />
    <glyph glyph-name="uniE65B" unicode="&#xe65b;" 
d="M824 297h-103v-104h103v104zM824 124h-103v-103h103v103zM652 469h-104v-103h104v103zM824 469h-103v-103h103v103zM789 711h-68v-104h68v104zM548 711h-69v-104h69v104zM307 711h-69v-104h69v104zM824 676v-103h-138v103h-103v-103h-138v103h-104v-103h-138v103h-138
v-793h897v793h-138zM893 -48h-759v586h759v-586zM479 124h-103v-103h103v103zM307 297h-104v-104h104v104zM479 297h-103v-104h103v104zM479 469h-103v-103h103v103zM652 297h-104v-104h104v104zM652 124h-104v-103h104v103zM307 124h-104v-103h104v103z" />
    <glyph glyph-name="uniE65C" unicode="&#xe65c;" 
d="M287 429v-1l103 -102l36 36l-56 55l90 89l12 -1q4 -1 9 -1q9 0 18 2l-66 66l-4 3q16 54 1.5 111t-57.5 99q-42 42 -100 56.5t-112 -0.5l124 -122l-32 -119l-122 -33l-123 122q-16 -53 -1 -109.5t57 -98.5q44 -44 105 -57.5t118 5.5zM652 356q-3 -14 -1 -28l1 -11l-90 -89
l-56 56l-36 -36l326 -322q31 -30 73.5 -30t72.5 30t30 72t-30 72zM905 -40l-52 -14l-42 41l14 51l51 14l42 -41zM506 318l56 -56l64 63q-5 51 31 86.5t88 30.5l280 276l-157 154l-280 -276q6 -50 -30.5 -86t-87.5 -30l-64 -63l56 -56l-277 -272l-10 10l-53 -43l-89 -139
l23 -22l141 88l42 52l-10 10zM506 318z" />
    <glyph glyph-name="uniE65D" unicode="&#xe65d;" 
d="M544 338v184q-16 2 -26 3v1h-1h-1h1h1v-1h-1v0h-1q-22 -3 -36 -4v-183h-379v147q0 17 12 29t29 12h173q-81 17 -82 67q-1 37 34 72t84 24t87.5 -42.5t76.5 -78.5q25 31 46 52.5t56 43.5t70 27q46 6 81 -29t30 -69q-8 -50 -87 -67h171q17 0 29 -12t12 -29v-147h-379z
M359 651q-45 18 -71 -25q-18 -31 -4 -46q40 -42 190 -26q-61 76 -115 97zM746 580q9 11 6 27.5t-15 29t-29 18.5t-36 -3q-57 -26 -115 -98q40 -3 79 -1q92 3 110 27zM482 -100h-308q-16 0 -27 11t-11 27v371h346v-409zM888 -62q0 -16 -11 -27t-27 -11h-308v409h346v-371z
" />
    <glyph glyph-name="uniE65E" unicode="&#xe65e;" 
d="M750 168v1v0v-1zM725 181v0v0zM602 431h1v0q5 -4 12 -4h225q7 0 12.5 5t5.5 13t-6 13l-224 224q-6 6 -13 6q-8 0 -13 -4.5t-6 -11.5v-2v-225q0 -8 6 -14zM642 604l132 -132h-132v132zM835.5 359q-9.5 0 -16 -6.5t-6.5 -15.5v-391q0 -8 -2.5 -11t-11.5 -3h-574
q-9 0 -11.5 3t-2.5 11v683q0 9 2.5 12t11.5 3h288h1q9 0 15.5 6.5t6.5 15.5t-6.5 15.5t-15.5 6.5h-1h-325q-9 0 -15.5 -6.5t-6.5 -15.5v-756q0 -9 6.5 -15.5t15.5 -6.5h648q9 0 15.5 6.5t6.5 15.5v426q0 10 -6.5 16.5t-16 6.5zM590 170q-21 0 -35.5 -11t-14.5 -26.5
t14.5 -26.5t35 -11t35.5 11t15 27v218q0 11 -7.5 18t-17.5 7l-147 -16q-11 0 -18 -7.5t-7 -17.5v-207q-13 7 -29 7q-21 0 -35.5 -11t-14.5 -26.5t14.5 -26.5t35 -11t35.5 11t15 27v12h-1h1v188l154 15v-150q-13 7 -28 7z" />
    <glyph glyph-name="uniE65F" unicode="&#xe65f;" 
d="M750 168v1v0v-1zM725 181v0v0zM498 139h246v-31h-246v31zM377 70h367v-31h-367v31zM602 431h1v0q5 -4 12 -4h225q7 0 12.5 5t5.5 13t-6 13l-224 224q-6 6 -13 6q-8 0 -13 -4.5t-6 -11.5v-2v-225q0 -8 6 -14zM642 604l132 -132h-132v132zM835.5 359q-9.5 0 -16 -6.5
t-6.5 -15.5v-391q0 -8 -2.5 -11t-11.5 -3h-574q-9 0 -11.5 3t-2.5 11v683q0 9 2.5 12t11.5 3h288h1q9 0 15.5 6.5t6.5 15.5t-6.5 15.5t-15.5 6.5h-1h-325q-9 0 -15.5 -6.5t-6.5 -15.5v-756q0 -9 6.5 -15.5t15.5 -6.5h648q9 0 15.5 6.5t6.5 15.5v426q0 10 -6.5 16.5t-16 6.5z
M339 440q0 -19 13 -32t31.5 -13t31.5 13t13 32t-13 32t-31.5 13t-31.5 -13t-13 -32zM420 303l-109 -106h433l-155 175l-103 -101z" />
    <glyph glyph-name="uniE660" unicode="&#xe660;" 
d="M750 168v1v0v-1zM725 181v0v0zM500 306q1 9 3.5 22t5 40.5t1.5 39.5q-1 3 -2 7l-1 3q-8 17 -22 17h-7q-21 0 -25 -16q-10 -36 15 -132l-3 -9q-11 -27 -37 -77l-1 -3q-18 -35 -35 -63l-10 -6q-19 -9 -24 -12q-58 -35 -64 -66q-3 -13 6 -18l10 -5q7 -4 14 -4q38 0 98 105
q75 24 150 36q62 -35 110 -35q7 0 12 1q9 3 13 9q8 11 5 31q0 6 -6 11q-13 12 -55 13q-30 0 -67 -5q-21 12 -31 21q-36 34 -55 87zM329 55q6 19 34 42q2 1 7 6q-25 -40 -41 -48zM654 169q14 0 24 -3q5 -1 7.5 -3t2.5 -3.5t-1 -2.5q-3 -2 -10 -2q-13 0 -43 13q11 1 20 1z
M483 415q11 0 12 -34q0 -22 -9 -37q-6 19 -6 46q0 25 3 25zM529 192q3 -3 7 -6q-54 -11 -94 -26q9 16 15 28q16 30 27 59q18 -33 45 -55zM602 431h1v0q5 -4 12 -4h225q7 0 12.5 5t5.5 13t-6 13l-224 224q-6 6 -13 6q-8 0 -13 -4.5t-6 -11.5v-2v-225q0 -8 6 -14zM642 604
l132 -132h-132v132zM835.5 359q-9.5 0 -16 -6.5t-6.5 -15.5v-391q0 -8 -2.5 -11t-11.5 -3h-574q-9 0 -11.5 3t-2.5 11v683q0 9 2.5 12t11.5 3h288h1q9 0 15.5 6.5t6.5 15.5t-6.5 15.5t-15.5 6.5h-1h-325q-9 0 -15.5 -6.5t-6.5 -15.5v-756q0 -9 6.5 -15.5t15.5 -6.5h648
q9 0 15.5 6.5t6.5 15.5v426q0 10 -6.5 16.5t-16 6.5z" />
    <glyph glyph-name="uniE661" unicode="&#xe661;" 
d="M750 168v1v0v-1zM725 181v0v0zM602 431h1v0q5 -4 12 -4h225q7 0 12.5 5t5.5 13t-6 13l-224 224q-6 6 -13 6q-8 0 -13 -4.5t-6 -11.5v-2v-225q0 -8 6 -14zM642 604l132 -132h-132v132zM835.5 359q-9.5 0 -16 -6.5t-6.5 -15.5v-391q0 -8 -2.5 -11t-11.5 -3h-574
q-9 0 -11.5 3t-2.5 11v683q0 9 2.5 12t11.5 3h288h1q9 0 15.5 6.5t6.5 15.5t-6.5 15.5t-15.5 6.5h-1h-325q-9 0 -15.5 -6.5t-6.5 -15.5v-756q0 -9 6.5 -15.5t15.5 -6.5h648q9 0 15.5 6.5t6.5 15.5v426q0 10 -6.5 16.5t-16 6.5zM403 348v-326q0 -10 6.5 -16.5t16 -6.5t16 6.5
t6.5 16.5v172q27 -15 57 -15q48 0 82 34t34 81.5t-34 81.5t-82 34q-32 0 -59.5 -17t-42.5 -45zM576 294.5q0 -29.5 -20.5 -50t-50.5 -20.5q-35 0 -57 29v83q22 29 57 29q30 0 50.5 -20.5t20.5 -50z" />
    <glyph glyph-name="uniE662" unicode="&#xe662;" 
d="M791 527q-56 56 -128 86t-151 30t-151 -30t-128 -86t-86 -128t-30 -151t30 -151t86 -128t128 -85.5t151 -29.5t151 29.5t128 85.5t86 128t30 151t-30 151t-86 128zM752 233h-480q-6 0 -10.5 4.5t-4.5 10.5t4.5 10.5t10.5 4.5h480q6 0 10.5 -4.5t4.5 -10.5t-4.5 -10.5
t-10.5 -4.5z" />
    <glyph glyph-name="uniE663" unicode="&#xe663;" 
d="M384 748h-320q-26 0 -45 -19t-19 -45v-320q0 -26 19 -45t45 -19h320q26 0 45 19t19 45v320q0 26 -19 45t-45 19zM384 492h-320v64h320v-64zM896 748h-320q-26 0 -45 -19t-19 -45v-832q0 -26 19 -45t45 -19h320q26 0 45 19t19 45v832q0 26 -19 45t-45 19zM896 172h-320v64
h320v-64zM896 364h-320v64h320v-64zM384 236h-320q-26 0 -45 -19t-19 -45v-320q0 -26 19 -45t45 -19h320q26 0 45 19t19 45v320q0 26 -19 45t-45 19zM384 -20h-128v-128h-64v128h-128v64h128v128h64v-128h128v-64z" />
    <glyph glyph-name="uniE664" unicode="&#xe664;" 
d="M729 179q-22 -21 -59 -21q-50 0 -76 33q-34 -33 -75.5 -41.5t-77.5 11.5q-45 26 -54.5 82.5t21.5 110t84.5 73t98.5 -6t54.5 -82t-21.5 -109.5q1 1 2.5 -1t5.5 -6t9 -6q15 -6 27 -7t19 1t13.5 9t8.5 10.5t7 11.5q8 17 10 43t-4 55.5t-18.5 57.5t-35.5 51.5t-52 33.5
q-62 23 -114.5 16.5t-91 -31t-63.5 -64.5q-31 -47 -39.5 -104.5t12 -113t71.5 -85.5q32 -18 70.5 -25t62 -5t44.5 7q6 1 16.5 5.5t19 7.5t12.5 2q22 -8 10 -27q-9 -13 -35 -23q-11 -5 -27.5 -9t-49 -8.5t-72.5 3.5t-76 29q-63 36 -91.5 100t-20 135t48.5 136q28 45 69 75
t86 41t92.5 6.5t90.5 -25.5q49 -23 81.5 -70.5t42.5 -98.5t1 -100t-37 -77zM566 377.5q-27 15.5 -60.5 1t-54 -50t-16.5 -72t31 -52t60.5 -1t54 50t16.5 72t-31 52z" />
    <glyph glyph-name="uniE665" unicode="&#xe665;" 
d="M991 219q-9 85 -21 149t-31.5 124t-46 98t-65.5 60.5t-89 22.5q-30 0 -59 -14t-49.5 -31.5t-48 -33t-53.5 -17.5q-27 2 -54.5 17.5t-48 33t-49.5 31.5t-58 14q-50 0 -89.5 -22.5t-66 -60.5t-46 -98t-31.5 -124t-21 -149q-29 -259 84 -259q34 0 60 12t43.5 31t32 40
t34.5 43.5t42 36.5q41 20 168 26q126 -6 167 -26q22 -14 42.5 -36.5t35 -43.5t31.5 -40t43 -31t60 -12q113 0 84 259zM320.5 243q-50.5 0 -86.5 35.5t-36 86t36 86t86.5 35.5t86 -35.5t35.5 -86t-35.5 -86t-86 -35.5zM869 340h-96v-96h-46v96h-96v46h96v96h46v-96h96v-46z
M320 364zM251 364.5q0 28.5 20 49t49 20.5t49.5 -20.5t20.5 -49t-20.5 -49t-49.5 -20.5t-49 20.5t-20 49z" />
    <glyph glyph-name="uniE666" unicode="&#xe666;" 
d="M896 -148h-256q-27 0 -45.5 18.5t-18.5 45.5v256q0 27 18.5 45.5t45.5 18.5h256q27 0 45.5 -18.5t18.5 -45.5v-256q0 -27 -18.5 -45.5t-45.5 -18.5zM896 364h-256q-27 0 -45.5 18.5t-18.5 45.5v256q0 27 18.5 45.5t45.5 18.5h256q27 0 45.5 -18.5t18.5 -45.5v-256
q0 -27 -18.5 -45.5t-45.5 -18.5zM832 620h-128v-128h128v128zM384 -148h-256q-27 0 -45.5 18.5t-18.5 45.5v256q0 27 18.5 45.5t45.5 18.5h256q27 0 45.5 -18.5t18.5 -45.5v-256q0 -27 -18.5 -45.5t-45.5 -18.5zM320 108h-128v-128h128v128zM384 364h-256q-27 0 -45.5 18.5
t-18.5 45.5v256q0 26 19 45t45 19h256q27 0 45.5 -18.5t18.5 -45.5v-256q0 -27 -18.5 -45.5t-45.5 -18.5zM320 620h-128v-128h128v128z" />
    <glyph glyph-name="uniE667" unicode="&#xe667;" 
d="M652 750l-430 -431l225 -225l431 430zM96 -32l270 72l-194 193zM448 -160h128v128h-128v-128zM640 -160h128v128h-128v-128zM832 -32v-128h128v128h-128z" />
    <glyph glyph-name="uniE668" unicode="&#xe668;" 
d="M442 649h40v-556h-40v556zM343 649h60v-556h-60v556zM303 649h20v-556h-20v556zM164 649h20v-556h-20v556zM204 649h60v-556h-60v556zM760 649h60v-556h-60v556zM641 649h60v-556h-60v556zM721 649h19v-556h-19v556zM641 53h219v-59h-219v59zM65 649h60v-655h-60v655z
M542 53h59v-59h-59v59zM840 649h20v-556h-20v556zM899 649h60v-655h-60v655zM582 649h39v-556h-39v556zM164 53h60v-59h-60v59zM264 53h238v-59h-238v59zM522 649h20v-556h-20v556z" />
    <glyph glyph-name="uniE669" unicode="&#xe669;" 
d="M512 807q-103 0 -197.5 -40.5t-162.5 -108.5t-108.5 -162t-40.5 -197.5t40.5 -198t108.5 -162.5t162.5 -108.5t198 -40.5t197.5 40.5t162 108.5t108.5 162.5t40.5 198t-40.5 197.5t-108.5 162t-162.5 108.5t-197.5 40.5zM431 74l-224 224l91 81l133 -132l295 285l91 -92z
" />
    <glyph glyph-name="uniE66A" unicode="&#xe66a;" 
d="M64 44h384v-128h-384v128zM64 364h640v-128h-640v128zM64 684h896v-128h-896v128z" />
    <glyph glyph-name="uniE66B" unicode="&#xe66b;" 
d="M64 684h384v-128h-384v128zM64 364h640v-128h-640v128zM64 44h896v-128h-896v128z" />
    <glyph glyph-name="uniE66C" unicode="&#xe66c;" 
d="M63 -72v681l295 118v-681zM83 595v-637l254 102v637zM697 -85l-315 105v702l315 -105v-702zM423 49l234 -78v616l-234 78v-616zM722 -50v681l239 96v-681zM742 617v-637l199 80v637z" />
    <glyph glyph-name="uniE66D" unicode="&#xe66d;" 
d="M863 461l117 146l-117 146h-347h-8h-113q-24 0 -41.5 -17t-17.5 -41v-176q0 -24 17.5 -41t41.5 -17h58v-59h-292l-117 -146l117 -146h292v-238q0 -23 16.5 -39t38.5 -16h8q22 0 38.5 16t16.5 39v238h234q24 0 41 17t17 41v176q0 24 -17 41t-41 17h-234v59h292z" />
    <glyph glyph-name="uniE66E" unicode="&#xe66e;" 
d="M149 281zM61 280.5q0 36.5 26 62.5t62.5 26t62 -26t25.5 -62.5t-25.5 -62t-62 -25.5t-62.5 25.5t-26 62zM512 281zM424 280.5q0 36.5 26 62.5t62.5 26t62 -26t25.5 -62.5t-25.5 -62t-62 -25.5t-62.5 25.5t-26 62zM875 281zM787 280.5q0 36.5 26 62.5t62.5 26t62.5 -26
t26 -62.5t-26 -62t-62.5 -25.5t-62.5 25.5t-26 62z" />
    <glyph glyph-name="uniE66F" unicode="&#xe66f;" 
d="M614 549q-67 0 -114 -47.5t-47 -114t47 -113.5t114 -47t114 47t47 113.5t-47 114t-114 47.5zM939 800h-854q-35 0 -60 -25t-25 -60v-854q0 -35 25 -60t60 -25h854q35 0 60 25t25 60v854q0 35 -25 60t-60 25zM614 147q-68 0 -126 35l-75 -76l80 -80l-80 -81l-80 81
l-81 -81l-80 81l80 80l-80 81l80 80l81 -80l75 75q-35 58 -35 126q0 100 70.5 170.5t170.5 70.5t170.5 -70.5t70.5 -170.5t-70.5 -170.5t-170.5 -70.5z" />
    <glyph glyph-name="uniE670" unicode="&#xe670;" 
d="M453.5 347q-66.5 0 -113.5 -47t-47 -113.5t47.5 -113.5t112.5 -46q67 0 113.5 46.5t46.5 113t-46.5 113.5t-113 47zM939 800h-854q-35 0 -60 -25t-25 -60v-854q0 -35 25 -60t60 -25h854q35 0 60 25t25 60v854q0 35 -25 60t-60 25zM853 307l-80 120l-120 -120
q40 -71 40 -120q0 -101 -69.5 -170.5t-170.5 -69.5t-170.5 69.5t-69.5 170.5t69.5 170.5t170.5 69.5q55 0 120 -40l120 120l-120 80h281z" />
    <glyph glyph-name="uniE671" unicode="&#xe671;" 
d="M438 662q-7 0 -11.5 -4.5t-4.5 -10.5v-126q-3 -12 -19 -12q-7 0 -12 4t-6 10v124q0 6 -5 10.5t-11.5 4.5t-11 -4.5t-4.5 -10.5v-124q-1 -6 -6 -10t-13 -4q-15 0 -18 12v126q0 6 -5 10.5t-11.5 4.5t-11 -4.5t-4.5 -10.5v-154v-1v0v-1v-46q0 -17 16.5 -37.5t32.5 -22.5
v-422q0 -15 10.5 -25.5t25.5 -10.5t25.5 10.5t10.5 25.5v422q16 2 32.5 22.5t16.5 37.5v46v1h-1h1v1v154q0 6 -5 10.5t-11 4.5zM740 523q0 49 -32.5 104t-73.5 55t-74 -55t-33 -104q0 -33 18.5 -59.5t47.5 -38.5v-457q0 -18 11 -30.5t26.5 -12.5t27 12.5t11.5 30.5v454
q31 11 51 38.5t20 62.5z" />
    <glyph glyph-name="uniE672" unicode="&#xe672;" 
d="M903 747l-559 -126q-4 -1 -11 -3.5t-19 -13t-12 -25.5v-568q-33 10 -69 10q-64 0 -109 -24.5t-45 -59.5t45 -59.5t108.5 -24.5t108.5 24.5t45 59.5v445l475 104v-349q-33 9 -70 9q-63 0 -108 -24.5t-45 -59t45 -59t108.5 -24.5t108.5 24.5t45 58.5v643q0 17 -12 29.5
t-30 12.5zM903 747z" />
    <glyph glyph-name="uniE673" unicode="&#xe673;" horiz-adv-x="1025" 
d="M942 502h-409l152 201q7 -1 9 -1q16 0 27 12.5t11 30.5q0 17 -12 29.5t-28.5 12.5t-28.5 -12.5t-12 -29.5q0 -5 3 -12l-167 -187h-6l-178 207q3 9 3 15q0 18 -12 30.5t-29 12.5t-29 -12.5t-12 -30.5t12 -30.5t29 -12.5l-1 1l-2 1l189 -225h-410q-12 0 -20 -4t-12.5 -9
t-6.5 -16.5t-2 -19.5v-24v-11v-557q0 -34 23.5 -53.5t58.5 -19.5h860q34 0 58 24.5t24 59.5v546q0 35 -24 59.5t-58 24.5zM738 -2q0 -36 -39.5 -78t-83.5 -48h-451q-32 0 -57 43.5t-25 82.5v294q0 39 26 82.5t58 43.5h441q35 0 83 -45.5t48 -80.5v-294zM854 70
q-34 0 -56.5 21.5t-22.5 56.5q0 36 23 59.5t56.5 23.5t55 -23.5t21.5 -59.5q0 -35 -21.5 -56.5t-55.5 -21.5zM854 285q-34 0 -55.5 22t-21.5 57t21.5 56.5t55.5 21.5t55.5 -22.5t21.5 -58.5q0 -35 -21.5 -55.5t-55.5 -20.5z" />
    <glyph glyph-name="uniE674" unicode="&#xe674;" horiz-adv-x="1343" 
d="M1047 800q-87 0 -154 -46.5t-100 -123.5q-32 77 -99 123.5t-154 46.5q-84 0 -154 -43t-108 -114q-14 2 -29 2q-100 0 -171 -71t-71 -171q0 -37 11 -73q20 -68 74.5 -148.5t110.5 -141.5t124 -124t94 -84.5t41 -32.5q68 53 152 133q71 -67 175 -153l4 -3l4 3
q138 114 234 210q245 246 298 427q14 44 14 89q0 122 -87 208.5t-209 86.5zM1316 420l-3 -9q-55 -175 -291 -413q-76 -76 -162 -150q-27 -23 -52 -43q-8 -7 -15 -12q-6 5 -15 12q-140 114 -259 241q-202 214 -248 374v0q-14 41 -14 85q0 117 83 199.5t200 82.5
q87 0 152.5 -48.5t93.5 -127.5l1 -3l3 -1h1l2 -1l2 1h1l3 1l1 3q29 79 94.5 127.5t152.5 48.5q117 0 199.5 -82.5t82.5 -199.5q0 -44 -13 -85z" />
    <glyph glyph-name="uniE675" unicode="&#xe675;" 
d="M950 -56q-2 12 -12 82q-1 13 -4.5 36.5t-4.5 34.5q-1 6 -5 36.5t-7 46.5q0 5 -3.5 31t-5.5 40q-2 15 -6 43.5t-6 39.5q-1 13 -4.5 36.5t-4.5 34.5q-10 71 -12 83q-1 12 -4.5 35.5t-4.5 35.5q-11 80 -11 83q-2 8 -5.5 34t-4.5 40q-3 19 -16 30q-1 0 -17 5h-720
q-1 -1 -6.5 -2t-8.5 -2q-16 -10 -18 -29v-830q2 -15 12 -22q11 -9 23 -9q20 -2 569 -2q1 1 3 1q14 0 22 14q8 11 8 27v177q0 122 -1 187v54q1 -4 19 -112q4 -26 12 -75t9 -54q19 -115 20 -122q10 -62 11 -63q3 -28 31 -34h127q15 2 21 9q7 8 9 22v13q-1 7 -2 22t-2 23z
M96 709q0 4 5 4h252q5 0 5 -4q-1 -36 0 -65q0 -6 -6 -5h-125h-125q-6 -1 -6 5q1 29 0 65zM352 -107h-125h-125q-6 0 -6 5q1 27 0 65q0 4 5 4h252q5 0 5 -5q-1 -37 0 -64q0 -5 -6 -5zM358 10q0 -6 -6 -6q-125 1 -250 0q-6 0 -6 6v293v292q0 6 7 6h249q6 0 6 -6
q-1 -292 0 -585zM395 709q0 4 4 4h252q5 0 5 -4v-65q0 -6 -5 -5h-125h-126q-5 -1 -5 5v65zM656 -103q0 -4 -5 -4h-252q-4 0 -4 4v65q0 5 5 5h126h125q5 0 5 -5v-65zM649 4q-122 1 -248 0q-6 0 -6 6v585q0 6 6 6h249q6 0 6 -6v-293v-291q0 -7 -7 -7zM839 -107h-16h-13
q-5 -1 -6 5q-4 32 -15 114q-4 24 -10 68.5t-7 55.5q-10 76 -17 124q-2 15 -8 57.5t-9 66.5q-3 19 -17 124q-13 99 -17 124q-8 60 -11 78q0 3 4 3h29q5 1 5 -5q2 -15 9 -63q1 -9 17 -124q14 -109 17 -124q2 -16 7.5 -58.5t8.5 -64.5q3 -19 6 -40t6 -46t5 -39q1 -7 7.5 -53
t9.5 -71q13 -94 18 -129q0 -2 -0.5 -2.5t-2.5 -0.5zM914 -107h-31q-3 0 -4 4q-2 11 -4.5 32t-3.5 24q-2 21 -8 62t-9 62q-3 22 -8.5 64t-7.5 59q-3 20 -8.5 61.5t-8.5 63.5q-4 23 -9.5 66.5t-7.5 56.5q-11 82 -17 124q-8 62 -17 124q-2 12 -2 14q-1 3 3 3h16h13q5 1 6 -5
q2 -13 7 -55q3 -21 8.5 -62t8.5 -62q3 -23 9 -65t8 -58q3 -21 8.5 -62.5t8.5 -62.5q3 -23 9 -65.5t8 -57.5q8 -60 17 -124q8 -62 17 -124q1 -12 2 -14q0 -3 -3 -3zM226 489h-87q-3 0 -4.5 1t-0.5 5v28q0 4 4 4h178q3 0 3.5 -1t0.5 -3v-29q0 -5 -5 -5h-89zM227 452h88
q3 0 4 -1t1 -4v-28q0 -4 -4 -4h-178q-3 0 -3.5 0.5t-0.5 3.5v28q-1 5 4 5h89zM226 340h-87q-3 0 -4.5 1t-0.5 5v27q0 5 4 5q90 -1 178 0q3 0 3.5 -1t0.5 -4v-28q0 -5 -5 -5h-89zM526 527h87q6 0 6 -6q-1 -11 0 -28q0 -4 -5 -4q-91 1 -178 0q-4 0 -4 5v28q0 5 5 5h89z
M526 452h87q4 0 5 -1t1 -4q-1 -11 0 -28q0 -4 -5 -4h-178q-2 0 -3 0.5t-1 3.5v28q0 5 5 5h89zM525 340h-88q-5 0 -5 6v28q0 4 4 4q92 -1 178 0q5 0 5 -5q-1 -16 0 -28q0 -5 -5 -5h-89z" />
    <glyph glyph-name="uniE676" unicode="&#xe676;" 
d="M596 528q0 -53 -19 -100.5t-50.5 -83t-73.5 -56t-88.5 -20.5t-87.5 19.5t-73 55t-51 84.5t-19 107q0 47 18.5 88.5t49 72.5t72 50t88 19t88.5 -19.5t74.5 -52.5t52 -75.5t19.5 -88.5zM324 197l-1 -363l37 48l39 -48v363h-75zM568 715q22 -26 39 -55q15 -25 27 -58t11 -69
q-1 -62 -12.5 -104t-26.5 -68q-17 -30 -38 -48q30 3 60 10q25 5 55 13.5t56 21.5q24 13 45 33t36 47.5t21 62.5t0 77q-6 43 -36 76.5t-71 53.5t-85.5 23t-80.5 -16zM569 256l-1 -346l36 46l38 -46v346h-73z" />
    <glyph glyph-name="uniE677" unicode="&#xe677;" 
d="M709 728q0 17 -10 29t-25 12h-300q-14 0 -24.5 -12t-10.5 -29v-88q0 -17 10.5 -29t24.5 -12h40q15 0 23.5 -11.5t5.5 -28.5l-4 -26q-5 -34 -14 -51l-188 -280q-8 -13 -8.5 -33t7.5 -26q6 -7 25 -3.5t27 15.5l98 139q9 13 14 10.5t2 -19.5l-31 -208q-2 -17 2 -38t13 -35
l120 -187q9 -13 21.5 -13t20.5 13l117 185q9 14 13 35.5t2 37.5l-70 484q-3 17 6 28.5t23 11.5h35q14 0 24.5 12t10.5 29v88z" />
    <glyph glyph-name="uniE678" unicode="&#xe678;" 
d="M792 399q-49 0 -91 -25l-8 20v1q-11 28 -18 51v2v1v1l-10 51q2 10 6 14q10 10 3 24q-11 20 -55 20q-15 0 -30 -3q-7 -1 -10.5 -6.5t-2 -11.5t7 -10t11.5 -2q26 5 45 -1q-6 -11 -6 -24v-4l8 -40h-175h-8q-18 0 -32 -1v9q10 7 24 9q12 2 27 8t14 15q0 11 -20 13q-5 0 -21 3
q-62 8 -88 8q-30 0 -35 -11q-4 -7 4 -17q25 -28 64 -34v-7v-1q-13 -4 -17 -10l-3 -3q-3 -4 -8 -10.5t-11 -15t-14.5 -19t-15.5 -21.5q-44 27 -94 27q-75 0 -127.5 -52.5t-52.5 -127t52.5 -127t127.5 -52.5q64 0 113.5 40.5t61.5 102.5q18 -2 32 -2q10 -16 28 -21v-28h-13
q-6 0 -10 -4t-4 -10t4 -10t10 -4h53q6 0 10 4t4 10t-4 10t-10 4h-13v28q16 5 26 18t10 29q0 11 -5 21l146 134l1 -2q1 -3 2 -4q-63 -54 -63 -136q0 -75 53 -127.5t127 -52.5t126.5 52.5t52.5 127t-52.5 127t-126.5 52.5zM792 82q-57 0 -97.5 40.5t-40.5 97.5q0 56 39 96
q41 -84 83 -106q5 -9 15 -9q7 0 12 5t5 12q0 13 -12 17q-36 13 -78 101q34 22 74 22q57 0 97.5 -40.5t40.5 -97.5t-40.5 -97.5t-97.5 -40.5zM412 214v3v3q0 80 -60 134l50 66q14 -50 51 -173q-18 -13 -20 -35q-10 1 -21 2zM371 218q-52 6 -108 15q12 19 64 87
q44 -41 44 -100v-1v-1zM233 82q-57 0 -97.5 40.5t-40.5 97.5t40.5 97.5t97.5 40.5q36 0 68 -19q-61 -82 -69 -96l-4 -8q-13 -3 -13 -17q0 -7 5 -12t13 -5q4 0 9 3q2 -1 5 0q55 -9 108 -15q3 -1 7 -1.5t5 -0.5q-11 -46 -48.5 -75.5t-85.5 -29.5zM483 256q-36 118 -50 169
q12 1 26 1h8q63 -1 182 0q5 -16 11 -32l-156 -143q-10 5 -21 5z" />
    <glyph glyph-name="uniE679" unicode="&#xe679;" 
d="M941 471l-397 137q-19 6 -22.5 6.5t-22.5 -6.5l-399 -136q-18 -6 -18 -15.5t18 -16.5l95 -32q-28 -28 -36 -57.5t-9 -74.5q-12 -5 -20 -16t-8 -25q0 -26 24 -38q-12 -91 -82 -175q33 -26 64 -36q35 15 51.5 48t15.5 72t-3 84q-1 7 -1 10q18 13 18 35q0 24 -20 37
q2 84 47 119q1 1 3 2l273 110q8 3 15.5 0t10.5 -11t0 -15.5t-11 -10.5l-231 -92l207 -70q18 -7 22 -7t22 7l394 135q18 7 18 16.5t-18 15.5zM502 251l-250 85v-64q21 -18 21 -48q0 -26 -16 -44q6 -19 17 -23q108 -61 247.5 -59t260.5 67q21 18 21 34v141l-256 -89
q-19 -7 -22.5 -6.5t-22.5 6.5zM502 251z" />
    <glyph glyph-name="uniE67A" unicode="&#xe67a;" horiz-adv-x="1026" 
d="M298 316q164 63 432 5q10 37 26.5 65.5t34 44.5t36.5 27.5t36 15.5t30.5 6t21.5 1h7q-5 54 -23.5 95.5t-41 64t-52.5 36.5t-53.5 18t-49 3.5t-34.5 -2t-14 -2.5q-43 35 -88 48t-78 7.5t-60 -17.5t-41 -23t-14 -12q-53 6 -96 -3.5t-70 -27t-47.5 -43t-30.5 -48.5
t-16 -46.5t-7 -34t-1 -13.5q44 2 79.5 -14t55.5 -40t34 -50.5t19 -42t5 -18.5zM1026 333q0 44 -31 75t-75 31q-28 0 -52 -14t-38 -37l-16 -20l-56 -127q-220 93 -417 27q-46 -15 -71 -31l-47 112q-10 27 -32 49q-32 41 -83 41q-44 0 -75 -31t-31 -75q0 -54 43 -85
q17 -15 40 -30h1q61 -152 85 -199q19 -38 87 -54l-32 -55q-9 -15 -4.5 -32t20 -25.5t32 -4t25.5 19.5l54 94h331l54 -94q9 -15 25.5 -19.5t32 4t20 25.5t-4.5 32l-31 54q28 4 49.5 21t29 29t7.5 15l71 189q4 1 12 4t25.5 15.5t27.5 28.5q24 29 24 67z" />
    <glyph glyph-name="uniE67B" unicode="&#xe67b;" 
d="M878 569q19 -19 28.5 -37.5t9 -31.5t-3.5 -23t-7 -15l-4 -5l-135 135q12 13 28.5 15t30.5 -3.5t26.5 -13t19.5 -14.5zM510.5 639q112.5 0 208 -55.5t151 -151t55.5 -207.5t-55.5 -207.5t-151 -151t-208 -55.5t-207.5 55.5t-150.5 151t-55.5 207.5t55.5 207.5t150.5 151
t207.5 55.5zM861 225q0 95 -47 176t-127.5 128t-175.5 47t-176 -47t-128 -128t-47 -176t47 -175.5t128 -127.5t176 -47t175.5 47t127.5 127.5t47 175.5zM702 257v-64h-223v319h64v-255h159zM638 671h-255q0 27 13.5 46.5t32 28.5t37 14.5t32.5 5.5l13 1q35 0 61.5 -10
t38.5 -24t19 -28t7 -24zM256 593l-135 -135q-22 24 -14.5 49t21 44t15.5 19q19 19 37.5 28.5t31.5 9t23.5 -3.5t15.5 -7z" />
    <glyph glyph-name="uniE67C" unicode="&#xe67c;" 
d="M477 387q0 -31 -22 -53t-53 -22h-267q-31 0 -53 22t-22 53v278q0 31 22 53t53 22h267q31 0 53 -22t22 -53v-278zM477 -89q0 -31 -22 -53t-53 -22h-267q-31 0 -53 22t-22 53v278q0 31 22 53t53 22h267q31 0 53 -22t22 -53v-278zM965 387q0 -31 -22 -53t-53 -22h-267
q-31 0 -53 22t-22 53v278q0 31 22 53t53 22h267q31 0 53 -22t22 -53v-278zM965 -89q0 -31 -22 -53t-53 -22h-267q-31 0 -53 22t-22 53v278q0 31 22 53t53 22h267q31 0 53 -22t22 -53v-278z" />
    <glyph glyph-name="uniE67D" unicode="&#xe67d;" 
d="M578 703h438v-63h-438v63zM578 514h438v-63h-438v63zM578 138h438v-63h-438v63zM578 -51h438v-63h-438v63zM449 358h-438v437h438v-437zM386 733h-313v-313h313v313zM449 -206h-438v438h438v-438zM386 170h-313v-313h313v313z" />
    <glyph glyph-name="uniE67E" unicode="&#xe67e;" 
d="M0 12v576h1024v-576h-1024zM64 526v-450h896v450h-896zM672 300q0 80 -47 136t-113 56h416v-384h-416q66 0 113 56t47 136zM800 236q20 0 34 19t14 45t-14 45t-34 19t-34 -19t-14 -45t14 -45t34 -19zM580 381q-1 -3 -2 -4t-3.5 -1t-7.5 2q-4 3 -11 7q-7 3 -17 5
q-9 3 -20 3q-9 0 -15 -2t-10.5 -5.5t-6.5 -9t-2 -10.5q0 -9 4.5 -15.5t12.5 -11t18 -9.5q10 -4 20.5 -9t20.5 -11t18 -14.5t12.5 -20t4.5 -26.5q0 -21 -7.5 -36.5t-20.5 -25.5t-30 -15q-1 -1 -3 -1h-2v-35h-31v30h-1h-1q-13 0 -24 3q-12 2 -21 5q-8 3 -14 6.5t-9 6t-4 7.5
t-1 14q0 6 1 10q0 4 1 7t2.5 4t3.5 1q3 0 8 -3.5t13 -7.5t19 -7t26 -3q9 0 17 2t13 6.5t8 10.5t3 14t-5 14.5t-13 11.5q-7 5 -17 9q-8 4 -20 9q-11 5 -21 11q-9 6 -17 15q-8 8 -12.5 19.5t-4.5 28.5q0 18 6.5 32t18.5 23.5t28 14.5q8 2 17 3v33h31v-33h2h2q9 -2 17 -4t14 -5
t8 -5t3 -3.5t1.5 -4t0.5 -5.5v-9v-10q-1 -4 -1 -6zM352 300q0 -80 47 -136t113 -56h-416v384h416q-66 0 -113 -56t-47 -136zM224 364q-20 0 -34 -18.5t-14 -45.5t14 -45.5t34 -18.5t34 19t14 45t-14 45t-34 19z" />
    <glyph glyph-name="uniE67F" unicode="&#xe67f;" horiz-adv-x="1026" 
d="M811 578h37q7 0 12 -6l162 -203q3 -4 3 -9v-249q0 -19 -13.5 -32.5t-32.5 -13.5h-56q-6 -43 -37.5 -72.5t-74.5 -32.5v29q35 3 59 29t24 61.5t-24 61.5t-59 29v30q43 -3 74.5 -33t36.5 -72h57q7 0 12 4q4 6 4 12v180h-184v30h184v34l-82 103h-102v30h79l-49 60h-30v30z
M333 733q28 -15 50 -37q11 -11 20 -23h165q25 0 42 -18q17 -17 17 -42v-35h184v-30h-184v-453h57q6 45 40 75t79 30h8v-30h-8q-37 0 -63.5 -26.5t-26.5 -64t26.5 -64t63.5 -26.5q5 0 8 1v-30h-8q-45 0 -79.5 30t-39.5 75h-300q-6 -53 -51 -84v40q22 25 22 58.5t-22 59.5v39
q44 -30 51 -83h214v518q0 12 -9 21t-21 9h-146q27 -50 27 -106q0 -93 -66 -159q-22 -22 -50 -38v35q17 11 29 24q57 57 57 137.5t-57 138.5q-13 13 -29 24v34v0zM811 488h-34q-20 0 -34 -14t-14 -34v-101q0 -20 14 -34t33 -14h35v30h-35q-7 0 -12 5t-5 13v101q0 7 5 12.5
t13 5.5h34v30zM225 761q58 0 108 -28v-34q-49 33 -108 33q-19 0 -36 -4v31q18 2 36 2v0zM333 -19q-31 -22 -68 -22q-43 0 -76 28v43q27 -41 76 -41q41 0 68 32v-40zM333 375v-34q-50 -29 -108 -29q-18 0 -36 3v30q17 -3 36 -3q59 0 108 33v0zM333 178v-39q-27 31 -68 31
q-49 0 -76 -41v44q33 27 76 27q37 0 68 -22v0zM189 488v38l21 18v128q0 10 7.5 14t14.5 0t7 -14v-135q0 -7 -5 -12zM189 -13q-38 30 -44 78h-46q-25 0 -42.5 17.5t-17.5 42.5v285q-39 58 -39 127q0 93 66 159q52 51 123 63v-31q-59 -10 -102 -53q-57 -58 -57 -138.5
t57 -137.5q43 -43 102 -54v-30q-69 11 -120 60v-250q0 -13 8.5 -21.5t21.5 -8.5h46q6 47 44 78v-44q-15 -22 -15 -49t15 -50v-43v0zM189 526l-23 -19l-21 -18q-8 -6 -6 -14.5t9 -11t16 2.5l25 22v38zM189 526z" />
    <glyph glyph-name="uniE680" unicode="&#xe680;" 
d="M949 -59h-831q-15 0 -25 10.5t-10 24.5v687q0 14 10 24t25 10h578q14 0 24 -10t10 -24.5t-10 -24.5t-24 -10h-544v-618h763v436q0 14 10 24t24 10t24 -10t10 -24v-470q0 -14 -10 -24.5t-24 -10.5zM533 285q-16 0 -26 12q-9 11 -8 25.5t12 23.5l416 343q11 9 25 8
t23.5 -12t8 -25.5t-12.5 -23.5l-416 -343q-9 -8 -22 -8z" />
    <glyph glyph-name="uniE681" unicode="&#xe681;" 
d="M831 674h-615q-49 0 -84 -35t-35 -85v-341q0 -50 35 -85t84 -35h286l146 -146q5 -5 12.5 -5t12.5 5t5 12t-5 12l-152 152q-2 2 -5 3.5t-7 1.5h-293q-35 0 -60 25t-25 60v341q0 36 25 61t60 25h615q35 0 60 -25t25 -61v-341q0 -35 -25 -60t-60 -25h-83q-7 0 -12 -5
t-5 -12.5t5 -12.5t12 -5h83q49 0 84 35t35 85v341q0 50 -35 85t-84 35zM356 382zM313 382.5q0 17.5 12.5 30t30 12.5t30 -12.5t12.5 -30t-12.5 -30t-30 -12.5t-30 12.5t-12.5 30zM526 382zM484 382.5q0 17.5 12.5 30t30 12.5t30 -12.5t12.5 -30t-12.5 -30t-30 -12.5
t-30 12.5t-12.5 30zM697 382zM654 382.5q0 17.5 12.5 30t30.5 12.5t30.5 -12.5t12.5 -30t-12.5 -30t-30.5 -12.5t-30.5 12.5t-12.5 30z" />
    <glyph glyph-name="uniE682" unicode="&#xe682;" 
d="M928 268h-832q-13 0 -22.5 9.5t-9.5 22.5t9.5 22.5t22.5 9.5h832q13 0 22.5 -9.5t9.5 -22.5t-9.5 -22.5t-22.5 -9.5zM832 -116h-192q-13 0 -22.5 9.5t-9.5 22.5t9.5 22.5t22.5 9.5h192q13 0 22.5 9.5t9.5 22.5v160q0 13 9.5 22.5t22.5 9.5t22.5 -9.5t9.5 -22.5v-160
q0 -40 -28 -68t-68 -28zM352 -116h-160q-40 0 -68 28t-28 68v160q0 13 9.5 22.5t22.5 9.5t22.5 -9.5t9.5 -22.5v-160q0 -13 9.5 -22.5t22.5 -9.5h160q13 0 22.5 -9.5t9.5 -22.5t-9.5 -22.5t-22.5 -9.5zM128 428q-13 0 -22.5 9.5t-9.5 22.5v160q0 40 28 68t68 28h160
q13 0 22.5 -9.5t9.5 -22.5t-9.5 -22.5t-22.5 -9.5h-160q-13 0 -22.5 -9.5t-9.5 -22.5v-160q0 -13 -9.5 -22.5t-22.5 -9.5zM896 428q-13 0 -22.5 9.5t-9.5 22.5v160q0 13 -9.5 22.5t-22.5 9.5h-192q-13 0 -22.5 9.5t-9.5 22.5t9.5 22.5t22.5 9.5h192q40 0 68 -28t28 -68v-160
q0 -13 -9.5 -22.5t-22.5 -9.5z" />
    <glyph glyph-name="uniE683" unicode="&#xe683;" 
d="M940 594q-20 20 -49 20t-49 -20l-440 -440l-220 220q-20 20 -49 20t-49 -20t-20 -49t20 -49l269 -269l2 -2q21 -19 48.5 -18.5t47.5 20.5l489 489q20 20 20 49t-20 49z" />
    <glyph glyph-name="uniE684" unicode="&#xe684;" 
d="M1024 111v504q0 81 -58 138.5t-139 57.5h-630q-81 0 -139 -57.5t-58 -138.5v-630q0 -82 58 -139.5t139 -57.5h630q72 0 126.5 46t67.5 116q-283 122 -397 176q-71 -86 -147.5 -129.5t-177.5 -43.5q-105 0 -169 56.5t-55 137.5q2 24 9.5 46t26.5 47t46.5 42t74.5 26t107 3
q23 -2 43 -4.5t40 -6.5t32.5 -7t33.5 -9.5t30.5 -9.5t35 -11.5t35.5 -11.5q35 64 57 139h-398v40h197v70h-240v44h240v102q0 2 1 4.5t6 7t13 4.5h98v-118h256v-44h-256v-70h209q-29 -116 -85 -213q27 -10 111 -36.5t155 -48.5l71 -21v0zM284 20q-36 0 -65 7.5t-46.5 19
t-30.5 26t-17.5 29.5t-7 28.5t0.5 23.5q7 34 42.5 62.5t92.5 28.5q131 0 284 -75q-55 -72 -120 -111t-133 -39z" />
    <glyph glyph-name="uniE685" unicode="&#xe685;" 
d="M841 494v-73q0 -127 -84 -220.5t-208 -106.5v-76h146q15 0 25.5 -10.5t10.5 -25.5t-10.5 -26t-25.5 -11h-366q-15 0 -25.5 11t-10.5 26t10.5 25.5t25.5 10.5h146v76q-124 13 -208 106.5t-84 220.5v73q0 15 11 25.5t25.5 10.5t25.5 -10.5t11 -25.5v-73q0 -106 75 -181
t181 -75t181 75t75 181v73q0 15 11 25.5t25.5 10.5t25.5 -10.5t11 -25.5zM695 713v-292q0 -76 -54 -129.5t-129 -53.5t-129 53.5t-54 129.5v292q0 76 54 129.5t129 53.5t129 -53.5t54 -129.5z" />
    <glyph glyph-name="uniE686" unicode="&#xe686;" 
d="M532 75q47 2 90 20l-20 36q-39 -15 -81 -15h-18q-92 0 -157.5 65.5t-65.5 157.5v169h-41v-169q0 -109 77 -187q73 -73 176 -77v-162h-151v-41h342v41h-151v162zM674 327v383q0 64 -45.5 110t-109.5 46h-14q-38 0 -71.5 -17.5t-54.5 -47.5l289 -517q6 21 6 43zM519 171
q28 0 55 10l-224 400v-254q0 -65 45.5 -110.5t109.5 -45.5h14zM785 339v169h-41v-169q0 -68 -37 -124l22 -39q56 71 56 163zM799 -115l-560 988l33 19l560 -989z" />
    <glyph glyph-name="uniE687" unicode="&#xe687;" 
d="M853 -212h-682q-71 0 -121 50t-50 121v682q0 71 50 121t121 50h682q71 0 121 -50t50 -121v-682q0 -71 -50 -121t-121 -50zM171 744q-43 0 -73 -30t-30 -73v-682q0 -43 30 -73t73 -30h682q43 0 73 30t30 73v682q0 43 -30 73t-73 30h-682z" />
    <glyph glyph-name="uniE688" unicode="&#xe688;" 
d="M853 812h-682q-71 0 -121 -50t-50 -121v-682q0 -71 50 -121t121 -50h682q71 0 121 50t50 121v682q0 71 -50 121t-121 50zM956 -41q0 -43 -30 -73t-73 -30h-682q-43 0 -73 30t-30 73v682q0 43 30 73t73 30h682q43 0 73 -30t30 -73v-682zM824 542l-406 -411l-190 209
q-10 10 -24 11t-24.5 -9t-11 -24t8.5 -24l239 -262l457 462q10 11 10 25t-10 24t-24.5 10t-24.5 -11z" />
    <glyph glyph-name="uniE689" unicode="&#xe689;" 
d="M752 260h24v-48h-24v48zM752 332h24v-48h-24v48zM752 404h24v-48h-24v48zM752 476h24v-48h-24v48zM752 548h24v-48h-24v48zM512 548q-56 0 -100.5 -33.5t-59.5 -86.5h50q14 32 44 52t66 20t66 -20t44 -52h-50q-5 0 -8.5 -3.5t-3.5 -8.5v-24q0 -5 3.5 -8.5t8.5 -3.5h96
q5 0 8.5 3.5t3.5 8.5v5l-8 31q-15 52 -59.5 86t-100.5 34zM512 260q-36 0 -66 19.5t-44 52.5h50q5 0 8.5 3.5t3.5 8.5v24q0 5 -3.5 8.5t-8.5 3.5h-96q-5 0 -8.5 -3.5t-3.5 -8.5v-6l8 -30q15 -53 59.5 -86.5t100.5 -33.5t100.5 33.5t59.5 86.5h-50q-14 -33 -44 -52.5
t-66 -19.5zM248 260h24v-48h-24v48zM248 332h24v-48h-24v48zM248 404h24v-48h-24v48zM248 476h24v-48h-24v48zM248 548h24v-48h-24v48zM1005 488h17v165q0 37 -26 62.5t-63 25.5h-843q-37 0 -63 -25.5t-26 -62.5v-165h17q42 0 72 -30.5t30 -73t-30 -73t-72 -30.5h-17v-166
q0 -36 26 -61.5t63 -25.5h843q37 0 63 25.5t26 61.5v166h-17q-42 0 -71.5 30.5t-29.5 73t29.5 73t71.5 30.5zM869 384.5q0 -52.5 34 -91.5t84 -46v-132q0 -21 -15.5 -36.5t-38.5 -15.5h-843q-22 0 -38 15.5t-16 36.5v132q50 7 84.5 46t34.5 91.5t-34.5 91.5t-84.5 46v131
q0 22 16 37.5t38 15.5h843q23 0 38.5 -15.5t15.5 -37.5v-131q-50 -7 -84 -46t-34 -91.5z" />
    <glyph glyph-name="uniE68A" unicode="&#xe68a;" 
d="M832 -212h-576q-53 0 -90.5 37.5t-37.5 90.5v640l384 -128h64l384 128v-640q0 -53 -37.5 -90.5t-90.5 -37.5zM577 110h93q31 0 32 27q1 11 -8.5 23.5t-23.5 12.5h-93v23q70 72 89 88q27 25 11 44q-9 10 -22 10t-24 -10l-87 -79q-62 64 -75 77q-11 10 -25 13.5t-26 -6.5
q-9 -14 -6 -25.5t11 -19.5l87 -91l-1 -25h-96q-10 0 -18.5 -13.5t-8.5 -25.5q0 -10 7.5 -17t19.5 -7l96 1v-69h-100q-11 0 -19 -8.5t-8 -19.5q-1 -11 7 -21.5t20 -10.5h100v-33q2 -30 35 -31q14 0 23.5 9.5t9.5 20.5l-1 34q84 1 99 0q12 0 20 10t7 22q-1 29 -34 29h-91v68z
M576 492h-64l-384 128q0 53 37.5 90.5t90.5 37.5h576q53 0 90.5 -37.5t37.5 -90.5z" />
    <glyph glyph-name="uniE68B" unicode="&#xe68b;" 
d="M992 650l-497 215q-6 3 -12 0l-452 -203q-9 -4 -9 -15v-506q0 -10 9 -14l468 -223q3 -2 7 -2t7 2l479 233q9 5 9 15v483q0 11 -9 15zM489 834l463 -201l-441 -189l-450 193q-2 1 -5 1zM54 606l442 -190v-476l-442 211v455zM527 -54v470l442 190v-445zM367 364l-180 77
q-6 3 -12 0.5t-8.5 -8.5t0 -12t8.5 -9l180 -77q3 -2 6 -2q11 0 15 10q2 6 -0.5 12t-8.5 9z" />
    <glyph glyph-name="uniE68C" unicode="&#xe68c;" 
d="M853 -131h-687q-73 0 -124 51t-51 123v688q0 72 51 123.5t124 51.5h687q73 0 124 -51.5t51 -123.5v-688q0 -72 -51 -123t-124 -51zM783 564zM740 533q-9 9 -22 8.5t-22 -9.5l-231 -241l-105 109q-9 9 -22 9.5t-22 -8.5t-9.5 -22t8.5 -22l128 -133v0h1q2 -2 7 -5l1 -1
q1 0 2 -1q5 -2 11 -2t12 2q1 1 2 1.5t2 1.5q5 3 6 4v0q0 1 1 1l253 265q9 9 8.5 21.5t-9.5 21.5z" />
    <glyph glyph-name="uniE68D" unicode="&#xe68d;" 
d="M668 -100q-100 -32 -200.5 -23t-187.5 52.5t-154 119t-100 175.5t-24 201t53 188.5t120 154.5t176 99.5t201 23.5t188 -53.5t154 -119.5t99.5 -175.5t23.5 -201t-53 -187.5t-120 -154t-176 -100zM901 514q-27 81 -81 142.5t-124 97t-152 43t-163 -19.5t-142 -81
t-96.5 -124.5t-43.5 -152t19 -162.5t81 -142.5t125 -97t152.5 -42.5t162.5 20t142.5 81t96.5 124t42.5 151.5t-19.5 162.5zM626 31q-74 -24 -147 -17.5t-137 38.5t-113 87t-72.5 128t-17.5 146.5t38 138t88 113.5t129 72.5t146 16.5t137 -39t113 -87t72.5 -128t17.5 -147
t-38 -137.5t-87.5 -112.5t-128.5 -72v0zM510 453q-30 0 -49.5 -20t-19.5 -49t19.5 -49.5t49 -20.5t49.5 20.5t20 49.5t-20 49t-49 20zM249 565l159 -92q6 3 12 8q5 3 10 7.5t11 7.5q14 8 26 12q7 2 13 3v185q-19 -2 -39 -6q-18 -5 -40.5 -12t-48.5 -22q-29 -17 -48.5 -33
t-32.5 -29q-13 -14 -22 -29zM221 251l160 93q-2 6 -3 13q-1 6 -1.5 12.5t-0.5 13.5q0 16 3 28q1 7 4 13l-159 93q-8 -16 -15 -36q-5 -17 -10 -41.5t-5 -53.5q-1 -34 3.5 -59t9.5 -42q6 -20 14 -34zM479 70l1 186q-6 1 -13 4q-12 4 -24 12q-6 3 -12 7.5t-10.5 9t-9.5 8.5
l-159 -91q10 -15 24 -31q12 -14 30 -29.5t44 -31.5q28 -17 52 -26t41 -13q21 -5 36 -5zM769 201l-159 92q-6 -5 -10 -9q-5 -3 -10.5 -7t-11.5 -8t-14 -7l-13 -4q-6 -2 -12 -3v-185q18 1 38 6q18 3 41 11t49 23q29 15 48.5 31.5t31.5 29.5q14 15 22 30zM798 517l-160 -93
l2 -13q1 -6 1.5 -13t0.5 -13q0 -8 -1 -15.5t-2 -13.5q-2 -7 -3 -14l158 -91q8 16 15 36q5 17 10.5 41.5t5.5 53.5q0 32 -4 58t-10 43q-6 20 -13 34zM540 698v-186l14 -4q5 -3 11.5 -5.5t11.5 -6.5l12 -8q6 -4 11 -8l10 -11l158 93q-10 14 -23 30q-13 14 -31 30t-43 32
q-30 17 -54 25.5t-41 12.5q-20 5 -36 6zM540 698z" />
    <glyph glyph-name="uniE68E" unicode="&#xe68e;" 
d="M949 430h-27v227q0 26 -19 45t-45 19h-118v54q0 27 -19 45.5t-45 18.5h-601q-26 0 -45 -18.5t-19 -45.5v-782q0 -27 19 -45.5t45 -18.5h783q26 0 45 18.5t19 45.5v209h27q26 0 45 18.5t19 45.5v100q0 26 -19 45t-45 19zM75 803h601q11 0 19 -8t8 -20v-54h-628
q-14 0 -27 -7v61q0 12 8 20t19 8zM885 -7q0 -12 -8 -20t-19 -8h-783q-11 0 -19 8t-8 20v664q0 11 8 19t19 8h783q11 0 19 -8t8 -19v-227h-173q-26 0 -44.5 -19t-18.5 -45v-100q0 -27 18.5 -45.5t44.5 -18.5h173v-209zM976 266q0 -12 -8 -20t-19 -8h-237q-11 0 -19 8t-8 20
v100q0 11 8 19t19 8h237q11 0 19 -8t8 -19v-100zM740 316q0 -19 13 -32.5t32 -13.5t32.5 13.5t13.5 32.5t-13.5 32t-32.5 13t-32 -13t-13 -32zM166.5 65q-7.5 0 -13 5.5t-5.5 13.5v464q0 7 5.5 12.5t13 5.5t12.5 -5.5t5 -12.5v-464q0 -8 -5 -13.5t-12.5 -5.5z" />
    <glyph glyph-name="uniE68F" unicode="&#xe68f;" 
d="M290 697h81q23 0 40 16.5t17 40t-17 40t-40 16.5h-81q-24 0 -40.5 -16.5t-16.5 -40t16.5 -40t40.5 -16.5zM858 444v0q-14 15 -33 19l-302 176h-290l-69 -198q-13 -16 -13 -36v-555q0 -25 17.5 -42.5t42.5 -17.5h602q25 0 42.5 17.5t17.5 42.5v555q0 22 -15 39zM742 -87
q0 -19 -13.5 -32.5t-32.5 -13.5h-368q-27 0 -40 24q-1 12 -1 15q0 157 59 262t188 159q1 -1 53 -30.5t103 -58.5l52 -28v-297zM772 329q-7 -12 -20.5 -15.5t-25.5 2.5l-195 114q-12 7 -15.5 20t3.5 25t20.5 16t25.5 -3l195 -114q12 -7 15.5 -20t-3.5 -25zM772 329z" />
    <glyph glyph-name="uniE690" unicode="&#xe690;" 
d="M993 497q19 13 24 24.5t5 32.5v170q0 35 -25 60t-60 25h-850q-35 0 -60 -25t-25 -60v-170q0 -22 5.5 -34.5t23.5 -22.5q35 -16 60 -44.5t25 -68.5q0 -85 -84 -113q-29 -19 -29 -57v-170q0 -35 24.5 -60t59.5 -25h850q35 0 60 25t25 60v170q0 22 -6 33t-23 24
q-47 24 -66 49t-19 64t18.5 63t66.5 50zM965 225v-152q0 -24 -16.5 -40.5t-40.5 -16.5h-792q-24 0 -40.5 16.5t-16.5 40.5v152q50 17 81.5 60.5t31.5 98.5t-31.5 98.5t-81.5 60.5v152q0 24 16.5 40.5t40.5 16.5h792q24 0 40.5 -16.5t16.5 -40.5v-152q-50 -17 -81.5 -60.5
t-31.5 -98.5t31.5 -98.5t81.5 -60.5zM668 441h-107l116 124q9 10 0 20l-18 20q-9 10 -18 0l-129 -138l-129 138q-9 10 -18 0l-18 -20q-9 -10 0 -19l116 -125h-107q-6 0 -10 -4.5t-4 -10.5v-28q0 -6 4 -10t10 -4h128v-57h-128q-6 0 -10 -4t-4 -10v-28q0 -6 4 -10t10 -4h128
v-99q0 -6 4 -10t10 -4h28q6 0 10 4t4 10v99h128q6 0 10 4t4 10v28q0 6 -4 10t-10 4h-128v57h128q6 0 10 4t4 10v28q0 6 -4 10.5t-10 4.5z" />
    <glyph glyph-name="uniE691" unicode="&#xe691;" 
d="M0 700v-802l576 -110v1023zM442 385q-3 -35 -16 -62.5t-30.5 -43.5t-38.5 -27.5t-41.5 -16t-37 -6.5t-26.5 -1h-10v-153h-88v448q138 7 183 0q105 -18 105 -138zM235 453v-154q4 0 11.5 0.5t26.5 5t33 11.5t25 23t10 37q-2 44 -24 57.5t-82 19.5zM622 679v-192
q44 44 105 44v-151h149q0 -63 -44 -107t-105 -44t-105 43v-108h291v-43h-291v-69h291v-43h-291v-90h401v760h-401zM748 404v151q62 0 105.5 -44.5t43.5 -106.5h-149z" />
    <glyph glyph-name="uniE692" unicode="&#xe692;" 
d="M625 679v-66h310v-44h-310v-70h310v-43h-310v-68h310v-43h-310v-69h310v-43h-310v-68h310v-44h-310v-68h310v-43h-310v-89h399v758h-399zM0 703v-806l577 -109v1024zM418 126h-85l-53 238l-68 -238h-58l-83 351h83l33 -219l55 241h87l47 -263l50 263h83z" />
    <glyph glyph-name="uniE693" unicode="&#xe693;" 
d="M911 473h-162v-100h162v100zM911 345h-162v-100h162v100zM911 602h-162v-101h162v101zM911 94h-162v-101h162v101zM985 702h-390q-7 0 -13 -3v109l-578 -115v-786l578 -115v103q6 -3 13 -3h390q15 0 25 11t10 26v737q0 15 -10 25.5t-25 10.5zM394 130l-70 5l-53 133
l-57 -124l-66 5l84 151l-75 164l66 5l44 -124h8l49 133l70 5l-88 -174zM976 -62h-394v55h132v101h-132v23h132v100h-132v28h132v100h-132v28h132v100h-132v28h132v101h-132v54h394v-718zM911 217h-162v-100h162v100z" />
    <glyph glyph-name="uniE694" unicode="&#xe694;" 
d="M453 385q0 -47 -29 -71q-29 -25 -83 -25h-55v186h61q106 0 106 -90zM983 622v-686q0 -29 -20.5 -50t-49.5 -21h-802q-29 0 -49.5 21t-20.5 50v896q0 29 20.5 49.5t49.5 20.5h588v0q10 0 16 -6v0h1l260 -257h1v-1v0q6 -6 6 -16zM515 387q0 67 -41 103t-117 36h-131v-463
h60v173h60q72 -3 121 40q48 42 48 111zM798 153q0 33 -19.5 55t-74.5 43q-44 17 -56.5 28t-12.5 31t17.5 32.5t45.5 12.5q48 0 84 -24v56q-36 15 -78 15q-54 0 -91.5 -26.5t-37.5 -70.5q0 -31 16.5 -52.5t71.5 -43.5q46 -18 61 -30t15 -31q0 -45 -69 -45q-52 0 -95 32v-60
q38 -20 90 -20q59 0 96 26.5t37 71.5zM958 623l-259 257v-234q0 -10 6.5 -16.5t16.5 -6.5h236z" />
    <glyph glyph-name="uniE695" unicode="&#xe695;" 
d="M512 812q-104 0 -199 -40.5t-163.5 -109t-109 -163.5t-40.5 -199t40.5 -199t109 -163.5t163.5 -109t199 -40.5t199 40.5t163.5 109t109 163.5t40.5 199t-40.5 199t-109 163.5t-163.5 109t-199 40.5zM194 204l253 432l44 -65l-255 -433zM291 141l256 434l44 -65l-257 -435
zM394 81l258 437l45 -66l-260 -438zM555 -36l-44 67l261 440l46 -66z" />
    <glyph glyph-name="uniE696" unicode="&#xe696;" 
d="M512 812q-104 0 -199 -40.5t-163.5 -109t-109 -163.5t-40.5 -199t40.5 -199t109 -163.5t163.5 -109t199 -40.5t199 40.5t163.5 109t109 163.5t40.5 199t-40.5 199t-109 163.5t-163.5 109t-199 40.5zM811 648l31 -33l-60 -123l-31 33zM512 758l43 -129h-43l-43 129h43z
M194 618l120 -56l-32 -32l-120 56zM183 300l-132 -43v43l132 43v-43zM234 -59l-31 31l54 117l31 -31zM512 -158l-43 132h43l43 -132h-43zM512 18q-117 0 -200 82.5t-83 199.5t83 199.5t200 82.5t199.5 -82.5t82.5 -199.5t-82.5 -199.5t-199.5 -82.5zM836 -24l-121 57l32 32
l121 -57zM838 257v43l131 43v-43z" />
    <glyph glyph-name="uniE697" unicode="&#xe697;" 
d="M1008 319q-84 -6 -107.5 0t-53.5 38l-45 48q-46 48 -93.5 98.5t-93 99t-55.5 56.5q-12 12 -22 26t-14 22l-4 9v95q54 3 107 0q37 -3 98 -36t122 -78q48 -35 87.5 -103t60.5 -138q9 -32 12.5 -66.5t1.5 -52.5zM955 277h-59q-52 13 -63 25q-3 3 -75 80.5t-144.5 155
t-85.5 89t-24.5 26.5t-15.5 24l-5 9v43q-96 -1 -182.5 -38.5t-149 -100t-99.5 -149.5t-37 -183q0 -95 37 -182.5t100 -150t150 -100t183 -37.5t183 37.5t150 100t100 150t37 182.5v19zM176 552l123 -68l-29 -30l-119 65zM52 218v39l136 39v-39zM213 -70l-28 28l50 108
l28 -29zM229 257q0 105 74.5 179.5t179.5 74.5t179.5 -74.5t74.5 -179.5t-74.5 -179.5t-179.5 -74.5t-179.5 74.5t-74.5 179.5zM470 -171l-39 136h39l39 -136h-39zM780 -56l-115 67l30 29l114 -66z" />
    <glyph glyph-name="uniE698" unicode="&#xe698;" horiz-adv-x="1034" 
d="M942 167q-36 -2 -68.5 12t-51.5 36l-1 1l-1 1q-19 23 -63 78v-18q0 -112 -78.5 -190.5t-190 -78.5t-190.5 78.5t-79 190.5q0 92 56.5 164t143.5 96q-11 52 -7 135q2 28 18.5 43.5t37.5 16.5q27 2 48 -18l1 -2q57 -63 79 -87h3q25 1 46 4q5 22 9 48q-22 24 -71 79
q-47 9 -95 9q-99 0 -189.5 -38.5t-156 -104t-104 -156t-38.5 -190t38.5 -190t104 -156t156 -104t189.5 -38.5q174 0 307.5 108.5t169.5 273.5q-11 -2 -23 -3zM185 580l115 -54l-31 -30l-115 54zM175 277l-127 -41v41l127 40v-40zM223 -66l-30 29l53 112l29 -30zM488 -161
l-40 127h40l41 -127h-41zM797 -32l-115 54l31 30l115 -54zM1001 376l-174 171q33 43 31.5 99t-39.5 98l-9 10q-46 51 -189 58q-14 0 -6 -11q76 -84 86 -95q5 -5 6.5 -13.5t1.5 -13.5l-1 -6q-11 -78 -22 -88q-5 -4 -27 -8t-41 -5l-19 -2q-28 1 -36 10l-85 95q-11 10 -12 -5
q-6 -144 38 -193l9 -10q39 -43 94.5 -50t102.5 23q13 -16 51 -63.5t69 -86.5l32 -39q12 -13 32.5 -22t49 -7t50.5 22t27 48t-2 49.5t-18 34.5zM1033 230z" />
    <glyph glyph-name="uniE699" unicode="&#xe699;" 
d="M919 692l-211 120l-44 -76l212 -120zM46 127v1v2v2l-1 1zM402 49q85 -49 169 -32.5t139 91.5l-412 239q-37 -85 -9 -167t113 -131zM838 479l51 90l-272 154l-52 -89q93 -20 153 -55q70 -42 120 -100zM977 390q0 -1 0.5 -2t0.5 -1.5t0.5 -1.5t0.5 -2zM978 386
q-9 29 -32 44t-51 7l-64 -18q-45 90 -132 140q-91 53 -198 45l-16 60q-7 29 -33 43t-55 6l-11 -3q-29 -8 -44.5 -33.5t-8.5 -54.5l17 -65q-78 -45 -125 -122q-56 -91 -52 -197l-81 -22q-28 -8 -40 -32t-6 -54q8 -29 30 -44t50 -7l80 22q46 -96 138 -148q81 -46 175 -45
l20 -77q7 -28 31.5 -37.5t56.5 -1.5l10 3q32 9 48.5 29.5t8.5 49.5l-19 73q96 49 149 144q50 90 44 192l65 17q28 8 40 32.5t5 53.5zM764 121q-27 -50 -72 -84.5t-96 -49t-107.5 -8t-106.5 35.5q-67 39 -104 104.5t-36.5 140.5t40.5 141q59 98 170 126t209 -30
q98 -57 128 -167t-25 -209zM641 463q-89 53 -178.5 31.5t-144.5 -109.5l415 -241q48 91 23 179t-115 140z" />
    <glyph glyph-name="uniE69A" unicode="&#xe69a;" 
d="M59 90l-59 58l137 141l-137 135l98 77l314 -334l-79 -77h-274zM481 -146q-36 0 -62.5 27t-26.5 65q0 16 5 30l84 153l82 -153q5 -14 5 -30q0 -38 -25.5 -65t-61.5 -27zM947 248l-58 58l-38 -58q10 -9 19 -19q7 -6 -0.5 -33t-18.5 -43q-6 -9 -34.5 -42.5t-54.5 -62.5
l-26 -29l-154 134l19 38q-2 12 -54.5 37t-60 20.5t-42.5 9t-54 29.5q-26 22 -192 172q10 9 25 23.5t46 36t44 16.5q13 -4 62.5 -36.5t72.5 -39.5q28 -9 127.5 -15.5t121.5 -3.5q12 1 26.5 10.5t22.5 18.5l9 9l-38 38l249 230l58 -364z" />
    <glyph glyph-name="uniE69B" unicode="&#xe69b;" 
d="M531 761q0 21 -14.5 36t-35.5 15h-110q-20 0 -34.5 -15t-14.5 -36v-63h209v63zM723 660h-422q-54 0 -92 -39t-38 -95v-603q0 -56 38 -95.5t92 -39.5h411q55 0 98 40t43 95v603q0 56 -38 95t-92 39zM399 149q-39 0 -67.5 29.5t-28.5 71.5q0 17 6 33l90 150l88 -150
q6 -16 6 -33q0 -42 -27.5 -71.5t-66.5 -29.5zM758 184q0 -22 -17 -38t-38.5 -16t-39.5 16t-18 38v327q0 22 18 38t39.5 16t38.5 -16t17 -38v-327z" />
    <glyph glyph-name="uniE69C" unicode="&#xe69c;" 
d="M410 769q0 21 14 32t35 11h106q49 0 49 -39v-73h-204v69zM648 663h-272q-55 0 -94.5 -39.5t-39.5 -96.5v-603q0 -57 39.5 -96.5t94.5 -39.5h272q55 0 94.5 39.5t39.5 96.5v590q0 57 -40 103t-94 46zM539 367l80 -45l-10 18l47 27l14 -23l-45 -25l36 -21l-14 -23l-20 11
v-31h-37v37h28l-83 47v-70l1 2l48 -27l-14 -23l-35 20v-43h-38v48l-43 -25l-14 23l48 27l9 -16v89l-86 -50h32v-39h-39v36l-27 -16l-14 23l36 21l-45 25l14 23l47 -27l-10 -18l80 45l-80 46l10 -18l-47 -27l-14 23l45 25l-36 21l14 23l30 -17v34h36v-37h-31l85 -49v89
l-9 -16l-48 27l14 23l43 -25v44h38v-39l35 20l14 -23l-48 -27l-1 2v-70l77 44h-22v37h37v-29l20 12l14 -23l-36 -21l45 -25l-14 -23l-47 27l10 18z" />
    <glyph glyph-name="uniE69D" unicode="&#xe69d;" 
d="M713 863q-29 22 -65 22h-418q-43 0 -73.5 -28.5t-30.5 -68.5v-759h-104q-8 0 -14.5 -6t-6.5 -14v-105q0 -8 6.5 -14.5t14.5 -6.5h835q8 0 14.5 6.5t6.5 14.5v105q0 8 -6.5 14t-14.5 6h-104v427q12 -23 21 -54q47 -164 134 -164q13 0 25.5 3t29.5 15t29.5 32t21.5 57.5
t9 87.5q0 63 -23 135t-61.5 135.5t-98.5 108.5t-127 51zM440.5 134q-34.5 0 -59.5 24.5t-25 58.5q0 15 5 28l80 139l78 -139q4 -13 4 -28q0 -34 -24 -58.5t-58.5 -24.5zM647 562q0 -18 -12.5 -30.5t-30.5 -12.5h-330q-18 0 -30.5 12.5t-12.5 30.5v164q0 18 12.5 30.5
t30.5 12.5h330q18 0 30.5 -12.5t12.5 -30.5v-164zM908 321q-4 1 -11 8.5t-19.5 33t-23.5 62.5q-32 111 -99 147q0 1 -1 1t-1 1v193q51 -24 95 -82t67.5 -125.5t23.5 -126.5q0 -35 -5.5 -62t-12 -38.5t-13.5 -11.5z" />
    <glyph glyph-name="uniE69E" unicode="&#xe69e;" 
d="M531 763q0 20 -14.5 34.5t-35.5 14.5h-106q-20 0 -34.5 -14.5t-14.5 -34.5v-63h205v63zM409.5 408q-21.5 0 -37 -15t-15.5 -37t15.5 -37.5t37 -15.5t37 15.5t15.5 37.5t-15.5 37t-37 15zM725 663h-426q-50 0 -86 -39t-36 -94v-611q0 -54 36 -92.5t86 -38.5h426
q50 0 86 38.5t36 92.5v611q0 55 -36 94t-86 39zM567 338q-1 -9 -10 -8h-2q-23 0 -32 -22q-10 -22 9 -39q6 -6 1 -12q-12 -14 -26 -25q-6 -5 -12 1q-7 7 -18 10t-21 -1q-23 -10 -22 -34q1 -8 -8 -9q-8 -1 -17 -1t-18 1q-8 1 -8 9q1 25 -21 34q-10 5 -21.5 2t-18.5 -10
q-5 -7 -12 -1q-14 11 -25 25q-5 6 1 12q18 16 9 39q-9 22 -33 22q-9 0 -10 7q-2 19 0 36q1 8 9 8q26 0 35 22t-9 39q-6 6 -1 12q11 14 25 25q7 5 12 -1q7 -7 18.5 -9.5t21.5 0.5q22 10 21 34q0 8 8 9q18 2 36 0q8 -1 7 -9q-1 -25 22 -34q10 -4 21 -1.5t18 9.5q6 7 12 1
q14 -11 25 -25q6 -6 0 -12q-19 -16 -9 -39q9 -22 32 -22q10 0 11 -7q2 -19 0 -36zM754 177q0 -22 -15.5 -38t-36.5 -16t-40.5 16.5t-19.5 37.5v322q0 22 18 37t40 15q21 0 37.5 -15t16.5 -37v-322z" />
    <glyph glyph-name="uniE69F" unicode="&#xe69f;" 
d="M323 641h270v-53h-270v53zM965 390h-85v-107h-107v56l-159 159h-75v90h-162v-90h-73v-97l-143 -46v-91h-89v90h-72v-251h72v89h89v-79q0 -21 9.5 -35t28.5 -19.5t34.5 -7.5t37.5 -2q20 0 48.5 -22.5t51.5 -45t30 -22.5h323q21 0 35 18.5t14 40.5v48h108v-107h92
q26 0 38.5 18.5t12.5 42.5v307q0 23 -19.5 43t-39.5 20z" />
    <glyph glyph-name="uniE6A0" unicode="&#xe6a0;" 
d="M313 -35q-34 20 -72 10t-57 -44q-20 -34 -10 -72t44 -58q22 -13 48 -13q12 0 24 3q37 10 57 44t10 72t-44 58zM314 -146q-12 -20 -34.5 -26t-42.5 6t-26 35t5.5 43t34.5 26q7 2 14 2q15 0 29 -8q20 -12 26 -35t-6 -43zM203 139l337 -201l25 43l-338 201zM742 628l-60 35
q-36 21 -75.5 9.5t-60.5 -48.5l-255 -454l155 -92l199 348l28 -17l-199 -348l43 -25l258 450q21 36 11.5 79t-44.5 63zM221 71l252 -151l17 29l-253 150zM740 812l-58 -105l113 -66l58 105z" />
    </font>
</defs>
</svg>
